<?xml version="1.0" standalone="no"?>
<!DOCTYPE svg PUBLIC "-//W3C//DTD SVG 20010904//EN"
 "http://www.w3.org/TR/2001/REC-SVG-20010904/DTD/svg10.dtd">
<svg version="1.0" xmlns="http://www.w3.org/2000/svg"
 width="1448.000000pt" height="1086.000000pt" viewBox="0 0 1448.000000 1086.000000"
 preserveAspectRatio="xMidYMid meet">

<g transform="translate(0.000000,1086.000000) scale(0.100000,-0.100000)"
fill="#000000" stroke="none">
<path d="M0 5430 l0 -5430 7240 0 7240 0 0 5430 0 5430 -7240 0 -7240 0 0
-5430z m6370 3740 c0 -5 -7 -10 -15 -10 -8 0 -15 5 -15 10 0 6 7 10 15 10 8 0
15 -4 15 -10z m-66 -16 c9 -8 16 -20 16 -25 0 -5 9 -9 19 -9 11 0 23 -5 27
-11 3 -6 15 -9 25 -6 11 3 16 1 13 -5 -4 -6 1 -8 12 -4 11 3 25 2 33 -3 10 -7
4 -9 -20 -7 -19 1 -40 -3 -48 -9 -12 -8 -13 -7 -6 4 6 11 4 13 -9 8 -9 -4 -15
-3 -12 1 2 4 -9 8 -25 9 -16 1 -29 -3 -29 -8 0 -6 7 -9 15 -5 14 5 20 -5 16
-27 -1 -5 2 -6 6 -4 5 3 17 -1 27 -9 18 -12 17 -13 -12 -10 -20 3 -32 -1 -36
-10 -3 -8 -1 -14 5 -14 6 0 7 -5 4 -10 -5 -8 -11 -7 -21 1 -19 16 -28 5 -16
-18 8 -15 6 -22 -8 -31 -10 -6 -20 -8 -22 -4 -2 4 -19 15 -38 25 l-35 17 35
-30 35 -31 -40 6 c-22 4 -56 8 -75 10 -19 2 -46 5 -59 7 -13 2 -26 -3 -28 -9
-3 -8 4 -13 18 -13 12 0 19 -3 15 -7 -4 -4 10 -13 31 -20 l38 -12 -35 6 c-42
8 -63 8 -112 -2 -36 -7 -38 -6 -38 19 0 14 -4 26 -10 26 -5 0 -7 -6 -4 -14 6
-16 -12 -31 -21 -17 -11 19 19 52 45 49 29 -3 64 28 55 50 -3 7 -5 18 -5 23 0
5 -4 9 -10 9 -12 0 -9 -22 4 -32 5 -3 3 -13 -5 -21 -18 -17 -59 -5 -59 18 0 8
-6 15 -12 15 -9 0 -9 3 1 9 12 8 12 12 2 25 -11 13 -10 17 5 22 11 3 29 9 40
14 12 5 33 6 45 3 18 -3 20 -2 10 5 -11 8 -2 12 35 17 27 4 57 15 67 23 15 13
24 14 47 5 17 -6 32 -7 35 -3 3 5 0 10 -7 13 -7 2 -3 2 9 1 12 -2 25 0 28 6 9
14 21 12 39 -6z m-934 -4 c0 -5 -2 -10 -4 -10 -3 0 -8 5 -11 10 -3 6 -1 10 4
10 6 0 11 -4 11 -10z m64 -32 c-4 -13 -2 -18 4 -14 6 3 23 2 37 -4 22 -9 30
-7 41 7 8 11 13 13 14 6 0 -7 7 -13 15 -13 9 0 12 -6 8 -15 -3 -9 2 -22 12
-29 10 -7 15 -18 11 -24 -4 -8 -2 -10 7 -6 8 3 17 -1 20 -10 4 -9 -2 -16 -18
-20 -13 -3 -27 -15 -30 -26 -7 -22 -20 -26 -31 -9 -4 7 -10 7 -16 1 -7 -7 -5
-17 4 -31 8 -12 18 -18 21 -14 4 3 7 3 7 0 0 -3 -9 -11 -21 -18 -18 -9 -25 -7
-50 17 -19 18 -38 27 -58 26 -17 0 -30 2 -30 6 4 22 -4 34 -33 52 -30 18 -31
20 -10 20 13 0 20 4 17 10 -3 6 -18 10 -32 10 -22 0 -24 -3 -19 -25 5 -19 3
-23 -8 -19 -18 7 -27 27 -18 40 4 6 25 17 46 25 22 8 41 20 44 28 3 9 0 11 -8
6 -9 -5 -11 -4 -6 4 4 6 11 9 16 6 5 -3 11 -1 15 5 4 6 10 8 15 5 5 -3 11 4
15 15 4 11 11 18 16 14 5 -3 7 -15 3 -26z m1036 -58 c18 -12 2 -12 -25 0 -13
6 -15 9 -5 9 8 0 22 -4 30 -9z m152 -12 c-9 -9 -15 -9 -24 0 -9 9 -7 12 12 12
19 0 21 -3 12 -12z m-962 -40 c0 -9 -3 -10 -23 -2 -9 3 -13 13 -9 26 5 20 6
20 19 3 7 -11 13 -22 13 -27z m265 32 c-3 -5 -10 -10 -16 -10 -5 0 -9 5 -9 10
0 6 7 10 16 10 8 0 12 -4 9 -10z m-5 -28 c0 -10 -21 -32 -31 -32 -4 0 -9 9
-12 20 -4 16 0 20 19 20 13 0 24 -4 24 -8z m727 -28 c-3 -3 -12 -4 -19 -1 -8
3 -5 6 6 6 11 1 17 -2 13 -5z m-1277 -37 c0 -5 -6 -5 -12 -1 -7 4 -5 -2 5 -14
17 -19 18 -23 4 -43 -9 -12 -29 -30 -46 -40 -27 -16 -31 -16 -31 -3 0 9 -5 12
-12 8 -6 -4 -8 -3 -5 4 4 5 17 8 30 4 20 -5 20 -4 8 11 -12 15 -10 20 10 37
21 17 22 21 9 30 -13 9 -12 12 4 25 16 12 22 12 28 2 4 -6 8 -16 8 -20z m280
23 c8 -5 11 -12 8 -16 -4 -3 -14 1 -23 10 -18 17 -9 21 15 6z m103 -19 c3 -14
1 -18 -9 -14 -15 6 -18 16 -7 26 9 10 10 9 16 -12z m-166 -7 c-3 -3 -12 -4
-19 -1 -8 3 -5 6 6 6 11 1 17 -2 13 -5z m188 -53 c-9 -16 -25 -3 -18 15 4 10
9 12 15 6 6 -6 7 -15 3 -21z m1785 3 c10 -10 11 -14 2 -14 -16 0 -72 28 -72
36 0 10 54 -7 70 -22z m-89 -2 c-7 -2 -18 1 -23 6 -8 8 -4 9 13 5 13 -4 18 -8
10 -11z m-2001 -1 c0 -12 -20 -25 -27 -18 -7 7 6 27 18 27 5 0 9 -4 9 -9z m84
-17 c3 -8 2 -12 -4 -9 -6 3 -10 10 -10 16 0 14 7 11 14 -7z m400 0 c4 -11 11
-12 32 -4 15 6 29 8 32 5 3 -2 11 0 17 5 9 7 26 4 56 -11 32 -15 37 -19 17
-16 -19 3 -25 0 -21 -10 3 -9 -3 -13 -20 -13 -14 0 -28 -7 -31 -16 -3 -8 -10
-12 -16 -9 -5 3 -10 1 -10 -5 0 -7 -6 -8 -19 0 -11 5 -27 7 -36 4 -13 -5 -15
-2 -9 20 4 18 2 27 -9 32 -23 8 -27 30 -7 31 10 1 21 -5 24 -13z m236 -34 c0
-5 -2 -10 -4 -10 -3 0 -8 5 -11 10 -3 6 -1 10 4 10 6 0 11 -4 11 -10z m160 3
c-8 -3 -23 -12 -32 -20 -9 -8 -25 -13 -35 -10 -14 3 -10 8 17 20 19 9 42 16
50 16 13 -1 13 -1 0 -6z m-475 -13 c3 -5 -1 -10 -10 -10 -9 0 -13 5 -10 10 3
6 8 10 10 10 2 0 7 -4 10 -10z m60 0 c3 -5 -1 -10 -9 -10 -9 0 -16 5 -16 10 0
6 4 10 9 10 6 0 13 -4 16 -10z m235 -25 c0 -2 -24 -17 -52 -32 -70 -37 -68
-36 -68 -24 0 5 24 21 53 35 54 25 67 29 67 21z m375 -5 c-27 -12 -43 -12 -25
0 8 5 22 9 30 9 10 0 8 -3 -5 -9z m-295 -15 c-7 -8 -27 -15 -44 -15 -17 0 -40
-7 -50 -15 -11 -8 -29 -15 -39 -15 -40 0 28 38 78 44 26 3 51 8 53 11 12 12
13 4 2 -10z m-215 -15 c-3 -5 -13 -10 -21 -10 -8 0 -12 5 -9 10 3 6 13 10 21
10 8 0 12 -4 9 -10z m-278 -6 c-3 -3 -12 -4 -19 -1 -8 3 -5 6 6 6 11 1 17 -2
13 -5z m189 -14 c8 0 14 4 14 10 0 5 7 7 16 3 13 -5 13 -8 2 -19 -15 -15 -92
-8 -82 7 3 5 10 7 15 4 5 -4 9 0 10 7 0 10 2 10 6 1 2 -7 11 -13 19 -13z m623
-35 c-39 -10 -76 -9 -66 2 8 7 92 20 101 15 6 -3 -10 -11 -35 -17z m-509 -7
c-13 -12 -34 -23 -48 -24 -13 -2 -31 -12 -39 -24 -14 -21 -33 -19 -33 3 1 18
47 48 82 52 17 3 33 7 36 10 3 3 10 5 16 5 5 0 -1 -10 -14 -22z m420 -2 c0 -2
-7 -7 -16 -10 -8 -3 -12 -2 -9 4 6 10 25 14 25 6z m-687 -36 c9 -11 13 -20 9
-20 -10 1 -42 26 -42 34 0 12 16 6 33 -14z m575 13 c-10 -2 -26 -2 -35 0 -10
3 -2 5 17 5 19 0 27 -2 18 -5z m-503 -33 c-3 -5 -12 -10 -18 -10 -7 0 -6 4 3
10 19 12 23 12 15 0z m480 -39 c-10 -9 -115 -32 -115 -25 0 2 15 10 33 18 37
16 96 21 82 7z m353 -13 c-7 -19 -38 -22 -38 -4 0 10 9 16 21 16 12 0 19 -5
17 -12z m-908 -23 c-7 -9 -15 -13 -19 -10 -3 3 1 10 9 15 21 14 24 12 10 -5z
m214 -54 c-38 -34 -52 -39 -94 -32 -5 1 122 70 130 70 3 1 -14 -16 -36 -38z
m553 23 c-3 -3 -12 -4 -19 -1 -8 3 -5 6 6 6 11 1 17 -2 13 -5z m-457 -14 c-8
-5 -19 -10 -25 -10 -5 0 -3 5 5 10 8 5 20 10 25 10 6 0 3 -5 -5 -10z m515 0
c-11 -5 -29 -9 -40 -9 l-20 0 20 9 c11 5 29 9 40 9 l20 0 -20 -9z m-395 -25
c-43 -23 -82 -33 -66 -17 9 9 87 41 101 41 6 0 -10 -11 -35 -24z m365 -25
c-19 -20 -41 -28 -30 -10 3 6 2 10 -3 10 -6 0 -12 -7 -16 -15 -3 -8 -11 -15
-18 -15 -9 0 -9 3 2 10 8 5 11 12 7 16 -4 4 -12 3 -18 -3 -6 -6 -18 -9 -27 -5
-19 7 48 29 92 31 28 1 29 1 11 -19z m-105 -32 c0 -10 -59 -9 -85 2 -14 6 -5
9 33 8 28 -1 52 -5 52 -10z m-1010 -338 c0 -5 -5 -10 -11 -10 -5 0 -7 5 -4 10
3 6 8 10 11 10 2 0 4 -4 4 -10z m2220 -152 c0 -4 -4 -8 -9 -8 -6 0 -12 4 -15
8 -3 5 1 9 9 9 8 0 15 -4 15 -9z m0 -44 c0 -3 -6 -15 -14 -27 -23 -35 -1 -47
58 -32 43 11 50 11 64 -6 14 -16 38 -17 28 0 -3 4 7 6 22 5 41 -2 43 -3 41
-16 -4 -35 2 -43 16 -24 15 19 15 19 15 -4 l0 -24 16 23 c11 15 19 19 24 12 4
-7 18 -13 31 -15 13 -1 34 -8 45 -14 12 -6 24 -9 27 -5 3 3 18 2 34 -1 22 -6
24 -9 12 -18 -12 -8 -12 -9 1 -5 8 3 24 9 34 13 15 6 17 4 11 -6 -6 -10 -4
-12 8 -7 12 4 22 -2 34 -21 10 -15 23 -33 30 -40 11 -11 13 -9 13 9 0 22 1 22
30 -6 16 -15 27 -32 24 -37 -3 -4 4 -8 15 -8 11 0 23 -4 26 -10 3 -5 19 -10
35 -10 19 0 33 -7 39 -19 9 -16 8 -18 -9 -14 -11 3 -20 9 -20 14 0 5 -15 9
-32 8 -18 0 -26 -3 -18 -6 24 -10 37 -27 34 -45 -3 -20 72 -92 86 -83 6 4 10
1 10 -4 0 -6 -4 -11 -10 -11 -18 0 -10 -17 22 -48 26 -26 29 -34 18 -47 -8
-10 -9 -15 -1 -15 6 0 11 -7 11 -15 0 -8 -4 -15 -9 -15 -6 0 -8 -10 -6 -21 5
-27 6 -28 36 -31 20 -3 23 1 21 20 -2 12 2 22 7 22 15 0 14 -33 -1 -48 -9 -9
-8 -12 6 -12 9 0 15 -4 11 -10 -3 -5 -12 -7 -20 -3 -21 7 -19 -21 2 -38 10 -8
14 -9 10 -2 -12 20 15 27 29 8 13 -17 14 -16 23 9 6 14 13 26 16 26 2 0 16
-23 30 -50 14 -28 30 -48 35 -45 5 3 11 1 15 -5 9 -14 -28 -13 -43 2 -9 9 -12
7 -12 -10 0 -12 3 -21 8 -21 23 4 34 -3 28 -17 -3 -8 0 -22 8 -30 17 -17 40
-19 30 -2 -4 7 -3 8 4 4 9 -5 9 -13 2 -27 -14 -25 -6 -24 21 4 20 20 21 20 15
2 -6 -16 -5 -17 5 -8 10 10 15 9 25 -5 15 -19 18 -33 7 -31 -26 4 -34 -1 -21
-15 9 -10 15 -11 20 -2 5 8 10 8 19 -1 14 -14 2 -36 -17 -29 -12 4 -13 2 -5
-12 5 -9 18 -17 28 -17 12 0 18 -8 19 -24 1 -13 5 -26 11 -30 11 -7 12 -71 1
-71 -4 0 -8 -6 -8 -14 0 -8 14 -15 35 -18 30 -3 34 -1 29 14 -3 10 -1 18 5 18
6 0 11 -8 11 -19 0 -10 9 -21 20 -24 17 -4 19 -11 15 -41 -2 -20 -7 -42 -11
-48 -5 -7 -3 -8 5 -3 9 5 12 -2 9 -26 -2 -25 1 -34 12 -34 8 0 18 4 22 10 5 6
8 3 8 -7 0 -10 -6 -18 -12 -18 -9 0 -9 -3 -2 -8 12 -8 14 -52 2 -52 -4 0 -8
-5 -8 -11 0 -5 4 -7 10 -4 6 4 7 -2 1 -18 -5 -13 -5 -30 -1 -37 5 -8 6 -18 3
-22 -2 -5 0 -14 5 -21 15 -20 24 -67 12 -67 -6 0 -10 -6 -9 -12 3 -26 -1 -39
-11 -33 -6 3 -10 -5 -10 -19 0 -13 -6 -26 -12 -29 -7 -2 -10 -7 -7 -11 4 -4
14 0 23 9 9 9 16 12 16 5 0 -6 5 -8 12 -4 8 5 9 2 5 -10 -4 -10 -2 -26 3 -37
8 -15 7 -19 -5 -19 -8 0 -15 -5 -15 -11 0 -5 5 -7 10 -4 9 6 15 -27 12 -68 -1
-10 1 -16 6 -14 4 3 8 -18 9 -45 2 -53 2 -53 -52 -33 -11 5 -17 5 -13 0 4 -4
2 -15 -5 -23 -10 -13 -9 -14 12 -3 30 16 47 2 32 -27 -8 -15 -8 -21 1 -24 8
-3 7 -11 -5 -28 -9 -14 -17 -19 -17 -12 0 6 -5 12 -11 12 -5 0 -8 -4 -5 -9 4
-5 0 -12 -6 -14 -8 -3 -6 -6 5 -6 10 -1 15 -5 12 -11 -4 -6 1 -7 12 -3 17 7
17 6 1 -18 -9 -14 -13 -31 -9 -38 8 -13 32 -12 42 2 4 5 6 -14 5 -42 -1 -43
-3 -49 -13 -34 -7 9 -13 20 -13 25 0 4 -7 8 -15 8 -17 0 -20 -16 -5 -25 6 -3
10 -15 10 -25 0 -24 20 -36 31 -19 12 19 11 6 -1 -26 -7 -17 -7 -24 0 -20 6 3
10 1 10 -4 0 -6 -8 -16 -19 -22 -15 -10 -17 -21 -13 -58 2 -25 9 -54 14 -63 5
-10 5 -18 0 -18 -4 0 -8 -9 -8 -20 0 -11 4 -20 7 -20 4 0 4 -14 -1 -30 -5 -19
-5 -28 1 -24 5 3 8 -8 7 -25 -1 -17 -5 -31 -9 -31 -3 0 -4 -11 -1 -25 2 -14
-1 -31 -6 -38 -12 -14 -11 -94 1 -114 4 -6 2 -24 -4 -39 -5 -16 -7 -25 -3 -21
4 4 12 2 19 -3 8 -7 19 -2 35 15 19 21 22 31 16 67 -4 24 -14 54 -23 67 -15
24 -18 104 -6 231 2 25 5 72 6 105 1 33 5 65 9 71 4 5 8 52 10 103 1 51 7 96
13 100 5 5 21 7 35 6 14 -2 30 -4 37 -4 6 -1 14 -14 18 -31 9 -43 22 -46 44
-10 15 25 20 28 25 15 3 -9 4 -26 1 -38 -3 -12 -9 -103 -14 -202 -7 -148 -13
-191 -31 -240 -13 -33 -31 -68 -41 -77 -11 -11 -20 -39 -24 -75 -11 -102 -16
-114 -64 -160 -41 -40 -46 -48 -44 -86 1 -23 8 -55 17 -72 9 -16 16 -40 16
-53 0 -19 -3 -21 -19 -12 -22 11 -37 -2 -25 -22 4 -6 -2 -18 -12 -26 -15 -12
-16 -14 -2 -9 9 3 19 3 21 -1 2 -4 2 -1 1 6 -2 6 1 12 7 12 18 0 22 -31 9 -71
-18 -53 -100 -126 -100 -88 0 24 -26 -18 -28 -46 -2 -33 -42 -167 -52 -175 -3
-3 -14 -31 -24 -62 -10 -32 -25 -68 -35 -80 -9 -13 -32 -53 -51 -91 -19 -37
-38 -67 -44 -67 -5 0 -7 -3 -3 -6 3 -4 1 -12 -6 -19 -44 -46 -56 -64 -58 -87
0 -10 -2 -10 -6 0 -8 21 -36 14 -30 -8 3 -11 1 -20 -5 -20 -5 0 -6 -5 -3 -10
3 -5 2 -10 -4 -10 -5 0 -13 -9 -16 -20 -5 -15 -12 -19 -31 -14 -19 5 -23 3
-18 -9 4 -11 -13 -34 -50 -70 -31 -30 -56 -59 -56 -65 0 -7 -9 -12 -19 -12
-18 0 -55 -36 -63 -62 -4 -11 -19 -8 -82 18 -15 6 -17 4 -10 -7 4 -8 9 -18 10
-24 1 -5 6 -19 10 -29 5 -14 4 -17 -4 -12 -8 5 -12 -3 -13 -26 -1 -29 -3 -26
-16 22 -8 30 -18 59 -23 64 -10 10 -6 -48 5 -83 8 -26 -10 -28 -43 -5 -16 11
-22 12 -22 3 0 -10 -3 -10 -12 -1 -19 19 -26 14 -21 -12 6 -31 -29 -54 -48
-33 -10 10 -18 11 -36 3 -12 -6 -23 -14 -23 -18 0 -4 -14 -2 -32 3 -38 11 -46
6 -24 -16 18 -18 21 -30 6 -20 -5 3 -10 1 -10 -5 0 -6 -10 -8 -27 -4 -21 6
-25 4 -20 -9 5 -13 1 -14 -26 -5 -18 6 -47 22 -64 35 -18 13 -33 20 -33 15 0
-5 20 -23 45 -41 46 -33 60 -50 26 -31 -26 13 -34 13 -25 -2 5 -9 2 -9 -9 1
-9 7 -17 18 -17 23 0 11 -41 47 -54 48 -4 0 -1 -12 9 -26 9 -14 14 -28 11 -32
-3 -3 -6 0 -6 6 0 7 -8 12 -17 12 -14 0 -13 -4 6 -24 14 -15 18 -25 11 -28 -7
-2 -3 -14 11 -32 18 -23 19 -30 8 -37 -9 -5 -21 -1 -37 13 -31 29 -62 34 -55
8 3 -12 11 -17 21 -13 14 4 14 3 3 -5 -7 -5 -10 -16 -6 -23 4 -8 -2 -3 -13 11
-25 30 -40 20 -18 -12 20 -28 21 -49 1 -22 -14 18 -14 18 -16 -11 -1 -16 -2
-37 -1 -46 1 -12 -4 -15 -18 -12 -15 4 -18 1 -13 -18 5 -17 3 -20 -7 -14 -10
6 -12 4 -7 -8 10 -27 -8 -20 -36 14 -14 17 -30 28 -36 25 -5 -4 -17 6 -25 21
l-15 28 -1 -24 c0 -24 0 -24 -16 -5 -14 18 -15 18 -3 -5 8 -18 9 -33 0 -62 -7
-22 -16 -39 -21 -39 -5 0 -19 18 -31 40 -21 38 -48 57 -36 26 4 -10 1 -13 -9
-9 -21 8 -18 -24 6 -49 11 -12 17 -24 14 -27 -3 -3 -10 2 -15 12 -13 23 -33
22 -27 -1 3 -11 0 -29 -6 -41 -12 -21 -13 -21 -23 13 -6 20 -7 36 -3 36 9 0
-20 74 -34 88 -4 4 -7 -11 -6 -33 3 -65 2 -69 -14 -56 -8 7 -18 35 -22 64 l-7
52 -11 -38 c-13 -46 -26 -39 -26 15 0 22 -4 37 -9 34 -4 -3 -6 -24 -4 -47 2
-23 0 -38 -5 -35 -6 3 -6 -11 -2 -37 7 -37 7 -40 -6 -23 -7 11 -19 46 -25 78
-6 32 -16 58 -20 58 -13 0 -11 -20 6 -75 13 -44 13 -50 -3 -61 -9 -7 -18 -11
-19 -10 -3 3 -16 106 -17 136 0 14 3 37 7 53 4 15 3 27 -2 27 -10 0 -20 -57
-22 -120 0 -40 -2 -42 -11 -22 -18 36 -30 25 -24 -20 l5 -43 -14 40 c-7 22
-14 51 -15 65 -1 23 -1 24 -12 6 -11 -19 -11 -19 -26 0 -14 18 -14 18 -8 -6
10 -37 13 -80 6 -80 -4 0 -12 12 -19 26 -6 15 -14 24 -17 21 -3 -3 -1 -15 6
-26 7 -13 7 -21 1 -21 -7 0 -7 -9 -1 -26 12 -32 12 -34 0 -34 -5 0 -12 11 -16
25 -3 14 -10 25 -15 25 -13 0 -11 -7 7 -35 21 -32 9 -52 -18 -28 -17 15 -19
26 -14 78 3 37 2 52 -3 40 -8 -19 -9 -18 -20 8 -14 35 -23 35 -15 0 6 -22 4
-25 -10 -20 -9 4 -16 2 -16 -3 0 -5 -9 -8 -20 -7 -12 1 -20 8 -20 19 0 9 -4
20 -10 23 -5 3 -10 -3 -10 -15 0 -12 -4 -18 -10 -15 -5 3 -10 21 -10 38 -1 27
-2 29 -11 14 -5 -9 -7 -22 -3 -29 4 -7 3 -8 -4 -4 -7 4 -12 1 -12 -6 0 -10 -3
-9 -10 2 -5 9 -5 19 2 27 8 10 6 13 -5 13 -19 0 -26 26 -15 64 7 28 7 28 -12
11 -18 -16 -20 -17 -20 -2 0 10 -5 17 -11 17 -11 0 -9 -16 6 -53 6 -13 4 -16
-9 -11 -14 5 -16 17 -13 58 2 28 9 61 15 73 7 12 14 41 16 64 l4 41 -24 -23
c-23 -22 -24 -46 -1 -32 7 4 6 -1 -2 -10 -16 -20 -36 -18 -36 4 0 8 -7 14 -15
14 -9 0 -14 -7 -12 -17 2 -12 -2 -16 -11 -12 -16 6 -31 -11 -42 -45 -5 -16 -4
-21 4 -17 19 12 12 -10 -10 -30 l-21 -19 6 40 c5 29 3 45 -9 60 -16 20 -16 20
-10 -1 9 -32 -11 -73 -34 -71 -18 1 -18 3 -5 29 25 47 15 51 -21 8 -19 -23
-35 -37 -35 -32 0 6 -9 14 -20 17 -11 3 -20 13 -20 20 0 9 -6 12 -17 8 -15 -5
-16 -3 -5 8 17 18 15 32 -4 25 -13 -5 -15 -2 -11 13 5 19 4 19 -19 4 -26 -17
-28 -14 -25 37 l2 25 -21 -25 -21 -25 7 30 c4 17 11 36 17 43 7 9 7 16 -1 24
-9 9 -16 2 -28 -28 -16 -37 -17 -38 -25 -16 -9 25 -3 48 20 76 15 18 15 19 -2
13 -15 -6 -17 -3 -12 14 5 13 3 19 -3 15 -5 -3 -12 4 -15 15 -3 12 -10 18 -15
15 -6 -4 -9 8 -7 29 3 30 1 35 -18 35 -20 1 -20 2 -4 11 9 6 15 15 12 20 -4 5
-11 7 -16 4 -5 -4 -9 -1 -9 4 0 6 6 11 13 12 6 0 3 4 -8 9 -11 5 -15 9 -8 9
19 1 3 31 -17 31 -10 0 -20 7 -24 15 -3 8 0 15 6 15 6 0 8 3 5 6 -4 4 -14 1
-24 -7 -11 -9 -14 -10 -9 -1 4 7 1 12 -8 12 -11 0 -5 10 16 31 32 30 32 30 7
24 -23 -6 -28 -2 -36 22 -6 15 -8 40 -6 56 2 15 -1 27 -7 27 -7 0 -9 8 -5 20
3 11 2 20 -4 20 -12 0 -24 -36 -17 -49 11 -17 -5 -43 -19 -31 -19 16 -44 -19
-39 -57 3 -24 0 -31 -10 -27 -8 3 -17 0 -21 -6 -5 -8 -12 -4 -22 10 -10 14
-22 20 -34 17 -11 -3 -19 -1 -19 5 0 5 -5 6 -11 2 -8 -5 -8 -1 0 14 15 28 14
32 -5 25 -14 -5 -15 -3 -5 15 9 18 8 23 -9 32 -12 7 -18 16 -13 23 4 7 0 7
-10 -2 -9 -7 -15 -17 -12 -21 3 -5 1 -11 -5 -15 -5 -3 -10 -1 -10 5 0 6 -5 8
-10 5 -6 -4 -8 -12 -4 -18 3 -7 -2 -3 -10 7 -14 17 -16 18 -16 3 0 -20 -16
-23 -23 -4 -4 9 -8 9 -15 -1 -7 -11 -11 -10 -16 4 -5 12 -1 23 10 31 21 16 10
17 -16 3 -16 -8 -18 -7 -14 4 3 8 -4 23 -15 33 -12 9 -21 23 -21 29 0 20 -32
26 -45 8 -8 -12 -14 -14 -19 -6 -4 7 -3 12 2 12 5 0 12 9 15 20 6 22 -8 28
-16 8 -3 -8 -6 -5 -6 5 -1 10 -5 16 -11 12 -5 -3 -14 13 -21 35 -7 22 -18 40
-25 40 -8 0 -11 6 -7 17 4 11 3 14 -5 9 -7 -4 -12 -2 -12 4 0 6 -4 9 -9 6 -9
-6 -56 30 -56 43 0 4 -8 15 -17 25 -10 10 -18 23 -18 31 0 7 -7 15 -15 19 -8
3 -15 9 -14 13 5 32 -2 55 -17 49 -9 -3 -12 -2 -9 5 4 6 -1 19 -10 29 -10 11
-18 35 -18 53 -1 25 -5 34 -17 32 -27 -4 -41 14 -27 36 8 13 9 22 2 27 -14 10
-37 72 -37 97 1 10 -4 26 -11 34 -9 11 -9 15 1 18 6 3 12 16 12 30 0 38 -25
13 -28 -28 -1 -17 -7 -40 -13 -50 -5 -11 -7 -25 -3 -31 4 -6 3 -8 -3 -5 -13 8
-16 84 -3 92 6 3 10 16 10 28 0 20 0 20 -15 1 -16 -21 -16 -23 -19 141 -2 72
-10 100 -27 89 -20 -12 -41 67 -35 130 14 131 14 171 3 185 -9 12 -9 13 1 7
18 -11 16 189 -5 407 -15 166 -15 184 0 250 9 40 20 123 23 185 4 62 11 115
16 118 4 3 6 10 3 15 -4 5 0 9 7 9 8 0 19 5 26 12 9 9 7 14 -6 25 -16 12 -16
13 1 7 10 -4 17 -3 16 2 -6 35 41 78 57 53 3 -5 13 -8 22 -7 14 2 17 -7 20
-45 1 -27 8 -55 16 -62 11 -11 15 -8 24 23 16 57 52 234 52 258 0 28 56 217
79 269 10 22 26 60 35 85 13 37 83 157 113 195 4 6 26 33 49 60 22 28 41 60
42 73 0 13 7 30 14 39 6 8 13 22 14 30 8 54 59 77 169 74 89 -2 84 -2 177 2
37 2 65 0 63 -4 -3 -4 7 -9 20 -12 14 -2 28 0 31 4 3 5 20 1 37 -8 18 -9 44
-17 60 -18 15 -2 34 -8 42 -15 11 -9 19 -10 28 -1 10 8 19 7 33 -4 25 -19 37
-19 63 4 14 12 18 22 11 26 -6 3 -8 11 -5 16 11 17 -4 9 -25 -13 -11 -12 -23
-18 -27 -14 -5 5 2 15 15 23 12 9 22 22 22 31 0 12 -4 12 -21 -4 -22 -19 -22
-19 -10 5 9 17 10 26 2 34 -14 14 -14 30 -1 22 6 -3 11 0 11 7 1 7 2 18 4 23
1 6 3 16 3 23 1 6 12 12 25 12 17 0 19 2 8 9 -15 10 -10 13 54 37 17 6 17 8 4
11 -10 2 -19 13 -22 24 -3 10 -1 17 4 13 5 -3 9 0 9 5 0 6 3 10 8 10 24 -4 33
3 27 20 -4 14 0 23 16 31 17 10 20 9 13 -2 -11 -17 -14 -38 -6 -38 3 0 17 10
31 23 18 15 21 16 11 3 -14 -18 -13 -18 9 -11 16 5 21 4 17 -4 -10 -16 3 -13
32 8 31 21 80 32 88 20 9 -15 21 -10 26 9 4 14 0 18 -16 18 -12 -1 -24 -5 -28
-11 -5 -6 -8 -5 -8 3 0 8 9 16 20 19 11 3 18 9 15 13 -3 5 -1 11 5 15 5 3 10
1 10 -6 0 -10 3 -10 12 -1 7 7 25 12 41 12 22 0 28 -4 23 -15 -5 -13 10 -20
37 -16 4 0 7 -6 7 -14 0 -13 4 -14 21 -4 20 10 21 9 16 -17 -4 -25 -3 -26 7
-12 12 16 15 16 44 -2 41 -25 40 -20 -4 25 -19 20 -33 40 -30 43 4 3 18 -9 33
-26 23 -28 32 -32 75 -32 33 0 47 -4 42 -11 -4 -6 -19 -9 -38 -5 -22 4 -27 3
-16 -4 22 -15 136 -2 190 21 47 20 69 22 82 5 4 -6 13 -4 22 3 9 7 23 11 31 7
8 -3 15 0 15 7 0 7 5 4 11 -6 11 -19 73 -21 65 -1 -3 7 4 9 19 6 12 -2 26 1
30 8 4 7 11 8 19 1 7 -6 17 -6 26 0 13 8 13 10 0 18 -25 17 -5 21 24 6 27 -14
28 -14 23 6 -5 20 -5 20 13 4 10 -9 23 -14 29 -10 7 4 8 0 4 -11 -4 -12 -3
-15 5 -10 7 4 12 16 12 26 0 10 7 26 16 34 14 15 13 16 -8 16 -17 0 -20 3 -9
9 13 8 41 5 41 -5z m84 -31 c-7 -8 -18 -11 -24 -8 -5 3 -16 3 -22 -1 -18 -11
-48 -12 -42 -2 9 14 45 26 76 25 23 0 24 -2 12 -14z m103 11 c-3 -3 -12 -4
-19 -1 -8 3 -5 6 6 6 11 1 17 -2 13 -5z m-744 -71 c-7 -2 -19 -2 -25 0 -7 3
-2 5 12 5 14 0 19 -2 13 -5z m67 -3 c0 -5 -5 -10 -11 -10 -5 0 -7 5 -4 10 3 6
8 10 11 10 2 0 4 -4 4 -10z m-55 -25 c-16 -7 -32 -11 -35 -9 -7 8 24 24 45 23
15 0 13 -4 -10 -14z m2178 -69 c-3 -4 -9 -2 -14 5 -13 22 -11 31 5 17 8 -7 12
-17 9 -22z m46 -27 c-26 -16 -28 -12 -20 46 0 5 8 -1 17 -14 14 -19 14 -25 3
-32z m82 -62 c-1 -4 -1 -18 -1 -32 l0 -25 -20 20 c-23 23 -25 36 -7 43 15 7
29 4 28 -6z m-1041 -77 c0 -5 -4 -10 -9 -10 -6 0 -13 5 -16 10 -3 6 1 10 9 10
9 0 16 -4 16 -10z m150 -160 c-8 -5 -19 -10 -25 -10 -5 0 -3 5 5 10 8 5 20 10
25 10 6 0 3 -5 -5 -10z m50 -120 c0 -5 -4 -10 -10 -10 -5 0 -10 5 -10 10 0 6
5 10 10 10 6 0 10 -4 10 -10z m82 -40 c30 -32 29 -37 -2 -20 -20 11 -46 50
-34 50 4 0 20 -13 36 -30z m-3547 -51 c-4 -5 -1 -9 4 -9 6 0 11 -4 11 -10 0
-5 -8 -10 -19 -10 -14 0 -17 6 -13 25 2 14 8 22 13 19 5 -3 7 -10 4 -15z m8
-46 c-7 -2 -19 -2 -25 0 -7 3 -2 5 12 5 14 0 19 -2 13 -5z m-56 -25 c-3 -8 -6
-5 -6 6 -1 11 2 17 5 13 3 -3 4 -12 1 -19z m3653 -6 c0 -12 -3 -12 -15 -2 -8
7 -15 13 -15 15 0 1 7 2 15 2 8 0 15 -7 15 -15z m-4150 -12 c0 -5 -9 -10 -20
-10 -22 0 -27 -15 -7 -24 10 -5 10 -7 0 -12 -7 -3 -13 -13 -13 -21 0 -14 3
-14 20 2 11 10 20 24 20 32 0 7 2 13 4 13 2 0 12 3 21 7 14 5 16 2 10 -15 -5
-17 -2 -22 12 -22 15 0 16 2 3 10 -11 7 -7 10 18 10 20 0 31 -4 27 -10 -3 -5
1 -10 9 -10 9 0 16 -4 16 -10 0 -5 12 -10 26 -10 17 0 23 -4 18 -12 -5 -8 0
-7 11 2 14 11 19 12 22 3 3 -7 9 -13 14 -13 6 0 7 5 4 10 -4 6 6 10 24 10 16
0 33 5 37 11 4 8 0 9 -15 4 -12 -4 -21 -2 -21 4 0 6 9 11 20 11 11 0 20 5 20
11 0 6 10 10 23 9 12 -1 24 -1 27 0 37 13 70 1 38 -14 -7 -3 -3 -3 10 0 14 3
24 0 28 -9 3 -9 13 -13 26 -9 18 4 20 2 16 -16 -4 -14 -2 -22 6 -22 7 0 19
-11 26 -25 14 -27 33 -35 24 -10 -4 8 -2 15 4 15 5 0 15 13 22 29 7 19 17 28
26 24 10 -4 14 3 14 20 0 25 1 25 30 11 21 -11 30 -23 30 -39 0 -13 5 -25 10
-27 6 -2 12 -32 14 -68 2 -36 8 -76 13 -90 6 -14 11 -51 12 -82 3 -68 -15 -96
-49 -78 -11 6 -35 9 -53 7 -17 -2 -24 -2 -14 0 26 7 20 23 -13 36 -29 11 -41
27 -20 27 6 0 10 5 10 10 0 6 -6 10 -14 10 -8 0 -17 8 -20 17 -5 12 -10 13
-18 5 -8 -8 -6 -15 6 -27 15 -15 15 -19 -6 -45 -27 -34 -58 -39 -58 -11 0 11
-4 23 -10 26 -5 3 -10 2 -10 -4 0 -5 -4 -21 -10 -35 -6 -18 -14 -24 -26 -19
-11 4 -12 8 -4 13 8 5 7 9 -4 13 -9 4 -16 2 -16 -3 0 -15 -36 -12 -50 5 -15
18 -61 20 -78 3 -10 -10 -15 -10 -22 2 -8 13 -10 12 -10 -2 0 -13 -8 -18 -31
-18 -21 0 -40 -9 -55 -25 -27 -29 -51 -32 -71 -7 -14 16 -14 16 -9 0 3 -11 0
-18 -9 -18 -7 0 -15 -6 -18 -12 -2 -7 -3 -5 -2 5 2 11 -3 17 -15 17 -13 0 -17
-5 -13 -20 3 -12 0 -20 -6 -20 -7 0 -9 5 -6 10 3 6 -1 10 -9 10 -8 0 -18 -5
-21 -10 -4 -6 -15 -8 -26 -5 -14 5 -19 1 -19 -14 0 -14 5 -19 15 -15 18 7 21
-26 3 -44 -9 -9 -9 -12 0 -12 17 0 15 -49 -2 -56 -8 -3 -17 -12 -20 -20 -3 -9
-1 -12 4 -9 6 3 10 -1 10 -9 0 -8 9 -18 20 -21 19 -6 18 -8 -10 -36 -31 -31
-50 -31 -50 0 0 14 -6 17 -30 13 -18 -3 -30 0 -30 7 0 6 14 11 30 11 17 0 30
5 30 11 0 5 -4 8 -9 5 -14 -9 -38 3 -38 19 0 10 9 12 31 8 30 -5 30 -5 11 11
-14 12 -16 19 -7 22 17 8 15 31 -4 38 -27 10 -37 7 -25 -7 8 -11 7 -18 -7 -30
-27 -25 -82 -27 -82 -3 0 8 -7 22 -16 30 -14 15 -14 17 0 22 9 3 16 15 16 25
0 21 1 22 24 13 20 -8 21 -24 2 -24 -7 0 -19 -7 -26 -15 -21 -25 17 -32 38 -7
11 13 33 22 58 24 35 3 39 6 39 31 1 15 -5 33 -12 39 -9 7 -13 7 -13 -1 0 -6
-7 -11 -15 -11 -8 0 -15 9 -15 20 0 11 -12 25 -27 33 -26 14 -26 15 -5 21 23
8 28 31 12 56 -7 11 -10 7 -10 -17 0 -31 -12 -43 -24 -25 -3 5 -25 7 -51 7
-25 -1 -48 2 -51 7 -3 4 -10 6 -15 2 -5 -3 -6 -11 -2 -17 22 -36 8 -63 -27
-52 -26 8 -25 19 3 34 14 8 15 10 3 6 -10 -3 -26 0 -34 7 -13 11 -15 10 -10
-4 5 -12 -2 -21 -27 -32 -40 -19 -54 -46 -23 -46 16 0 18 -3 10 -13 -6 -7 -9
-23 -5 -35 5 -22 -10 -31 -22 -12 -10 15 -23 12 -28 -7 -3 -12 -7 -8 -12 15
-8 32 -19 40 -30 22 -14 -22 -26 -9 -20 23 5 25 4 28 -5 15 -6 -10 -10 -30 -8
-45 3 -24 -1 -27 -32 -30 -94 -10 -105 -9 -109 12 -4 22 -38 55 -55 55 -6 0
-4 -5 4 -11 13 -9 13 -10 0 -5 -8 3 -23 9 -32 12 -13 5 -16 13 -11 33 8 33 19
41 66 41 20 0 37 5 37 11 0 5 -3 8 -7 6 -5 -3 -13 1 -19 7 -9 9 -8 17 3 32 14
18 15 18 9 -6 -6 -25 -6 -25 5 -2 7 12 16 22 21 22 12 0 10 -14 -4 -28 -7 -7
-8 -12 -2 -12 5 0 20 15 33 33 12 17 21 25 19 17 -3 -8 5 -23 18 -32 29 -23
37 -23 22 2 -10 16 -10 22 4 32 9 7 20 30 23 50 6 33 5 37 -17 41 -21 4 -20 4
5 6 23 1 27 -3 27 -25 0 -21 3 -24 13 -15 8 6 17 8 20 4 4 -3 7 1 7 9 0 17 30
33 39 21 14 -18 48 -31 62 -22 21 13 61 11 56 -3 -2 -7 -16 -12 -31 -11 -14 1
-24 -2 -21 -8 4 -5 18 -9 31 -9 16 0 24 -5 22 -12 -3 -7 2 -20 10 -28 11 -10
17 -11 19 -3 3 7 10 10 18 7 7 -3 16 -1 20 5 3 6 16 12 28 12 17 1 15 3 -8 9
l-30 8 33 1 c29 1 37 -7 33 -31 0 -5 3 -8 9 -8 22 0 9 40 -15 46 -14 3 -23 10
-20 14 3 5 -7 11 -22 13 -17 3 -12 5 14 4 23 -1 45 2 49 6 4 4 -5 7 -19 7 -35
0 -36 26 -2 42 14 6 25 17 25 24 0 8 8 10 22 6 14 -3 19 -2 14 6 -4 7 -1 12 9
12 9 0 18 12 22 30 3 17 10 30 15 30 5 0 6 5 3 10 -8 12 -7 12 32 1 24 -7 33
-6 37 5 3 8 1 14 -4 14 -6 0 -10 5 -10 10 0 6 16 10 35 10 39 0 48 16 13 23
-22 4 -22 4 2 6 14 1 32 6 40 11 19 13 30 13 30 0z m440 -20 c0 -5 -5 -10 -11
-10 -5 0 -7 5 -4 10 3 6 8 10 11 10 2 0 4 -4 4 -10z m4450 -4 c0 -3 -4 -8 -10
-11 -5 -3 -10 -1 -10 4 0 6 5 11 10 11 6 0 10 -2 10 -4z m-4703 -32 c-3 -3
-12 -4 -19 -1 -8 3 -5 6 6 6 11 1 17 -2 13 -5z m-564 -114 c-20 -23 -33 -26
-33 -6 0 13 13 20 42 25 4 0 0 -8 -9 -19z m17 -65 c0 -9 -6 -12 -15 -9 -8 4
-12 10 -9 15 8 14 24 10 24 -6z m-599 -130 l0 -20 9 20 c9 20 9 20 9 0 1 -16
8 -21 35 -23 19 -1 37 2 41 8 11 18 25 10 25 -15 0 -14 -4 -25 -10 -25 -5 0
-10 5 -10 10 0 6 -4 10 -8 10 -5 0 -8 -10 -8 -21 1 -32 -22 -35 -30 -5 -5 22
-8 23 -20 11 -8 -7 -14 -21 -14 -30 0 -9 -4 -13 -10 -10 -5 3 -10 17 -10 31 0
13 -3 24 -8 24 -4 0 -6 -18 -4 -40 3 -25 0 -40 -7 -40 -6 0 -11 19 -11 46 0
27 -4 43 -10 39 -6 -4 -10 6 -10 22 0 23 4 28 25 28 18 0 25 -6 26 -20z m-61
-45 c0 -5 -4 -10 -10 -10 -5 0 -10 5 -10 10 0 6 5 10 10 10 6 0 10 -4 10 -10z
m1260 -44 c0 -6 -7 -1 -15 10 -8 10 -14 26 -14 34 0 16 28 -28 29 -44z m37 21
c-25 -10 -33 -2 -16 16 10 10 16 11 25 3 9 -8 7 -13 -9 -19z m203 13 c0 -5 -2
-10 -4 -10 -3 0 -8 5 -11 10 -3 6 -1 10 4 10 6 0 11 -4 11 -10z m140 0 c0 -5
-4 -10 -10 -10 -5 0 -10 5 -10 10 0 6 5 10 10 10 6 0 10 -4 10 -10z m-830 -38
c0 -13 -12 -22 -22 -16 -10 6 -1 24 13 24 5 0 9 -4 9 -8z m697 -14 c-3 -8 -6
-5 -6 6 -1 11 2 17 5 13 3 -3 4 -12 1 -19z m-1357 -25 c0 -14 -2 -15 -9 -4 -5
7 -14 10 -20 7 -6 -4 -11 -2 -11 3 0 6 9 11 20 11 12 0 20 -7 20 -17z m1040
13 c0 -3 -4 -8 -10 -11 -5 -3 -10 -1 -10 4 0 6 5 11 10 11 6 0 10 -2 10 -4z
m355 -6 c3 -6 -1 -7 -9 -4 -18 7 -21 14 -7 14 6 0 13 -4 16 -10z m-1291 -37
c4 -9 2 -21 -4 -27 -8 -8 -9 -6 -5 7 4 10 2 17 -4 17 -6 0 -11 5 -11 10 0 16
17 11 24 -7z m326 1 c0 -8 -5 -12 -10 -9 -6 4 -8 11 -5 16 9 14 15 11 15 -7z
m567 -26 c-3 -8 -6 -5 -6 6 -1 11 2 17 5 13 3 -3 4 -12 1 -19z m-427 -63 c0
-8 -2 -15 -4 -15 -2 0 -6 7 -10 15 -3 8 -1 15 4 15 6 0 10 -7 10 -15z m80 -45
c0 -11 -4 -20 -10 -20 -5 0 -14 9 -20 20 -9 17 -8 20 10 20 13 0 20 -7 20 -20z
m-40 -51 c0 -5 -4 -9 -10 -9 -5 0 -10 7 -10 16 0 8 5 12 10 9 6 -3 10 -10 10
-16z m-35 -19 c-3 -5 -10 -10 -16 -10 -5 0 -9 5 -9 10 0 6 7 10 16 10 8 0 12
-4 9 -10z m125 2 c0 -5 -7 -17 -15 -28 -15 -19 -20 -8 -9 20 6 17 24 22 24 8z
m113 -12 c-20 -23 -33 -26 -33 -6 0 14 14 24 37 25 9 1 7 -6 -4 -19z m-65 -34
c3 -12 -1 -17 -10 -14 -7 3 -15 13 -16 22 -3 12 1 17 10 14 7 -3 15 -13 16
-22z m-178 -16 c0 -5 -5 -10 -11 -10 -5 0 -7 5 -4 10 3 6 8 10 11 10 2 0 4 -4
4 -10z m223 4 c9 -9 -4 -35 -14 -28 -5 3 -9 12 -9 20 0 14 12 19 23 8z m5428
-188 c-13 -16 -3 -106 12 -106 5 0 7 11 5 24 -4 18 -1 23 9 19 10 -4 12 -15 7
-42 -9 -47 -10 -48 -37 -23 -24 23 -47 29 -47 13 0 -6 5 -13 11 -17 12 -7 -27
-44 -46 -43 -5 0 -1 6 9 14 16 12 17 17 6 30 -9 11 -10 18 -1 29 9 11 8 15 -5
20 -11 4 -14 12 -9 24 4 9 7 28 7 42 -1 24 -1 24 13 6 8 -10 12 -23 9 -27 -3
-5 0 -18 6 -30 9 -15 15 -18 23 -10 7 7 7 14 -2 25 -9 10 -9 16 -1 21 7 4 10
16 7 26 -4 14 0 19 15 19 16 0 18 -3 9 -14z m-13 -184 c6 -18 -15 -14 -22 4
-4 10 -1 14 6 12 6 -2 14 -10 16 -16z m-678 -47 c0 -8 -4 -15 -10 -15 -5 0
-10 7 -10 15 0 8 5 15 10 15 6 0 10 -7 10 -15z m-3567 -1872 c-7 -2 -19 -2
-25 0 -7 3 -2 5 12 5 14 0 19 -2 13 -5z m367 -37 c0 -11 -19 -15 -25 -6 -3 5
1 10 9 10 9 0 16 -2 16 -4z m-40 -80 c0 -2 -7 -7 -16 -10 -8 -3 -12 -2 -9 4 6
10 25 14 25 6z m77 -22 c-3 -3 -12 -4 -19 -1 -8 3 -5 6 6 6 11 1 17 -2 13 -5z
m2085 -291 c-6 -3 -9 -10 -6 -16 5 -9 4 -9 -6 0 -7 6 -10 19 -6 29 5 14 9 15
19 4 9 -10 9 -13 -1 -17z m-277 -113 c3 -5 1 -10 -4 -10 -6 0 -11 5 -11 10 0
6 2 10 4 10 3 0 8 -4 11 -10z m-1308 -26 c1 -5 -2 -16 -7 -24 -12 -20 -35 2
-26 25 6 17 27 16 33 -1z m-893 -119 c-2 -11 -6 -48 -9 -81 -3 -34 -12 -75
-20 -90 -20 -39 -19 -53 7 -73 22 -18 18 -41 -8 -41 -22 0 -17 -18 13 -46 22
-21 25 -28 15 -47 -12 -25 -23 -75 -28 -127 -11 -133 -13 -183 -7 -193 4 -7 9
-51 10 -98 2 -47 9 -104 17 -126 16 -47 4 -79 -26 -68 -45 17 -142 205 -169
325 -24 106 -47 355 -38 416 18 132 97 268 188 326 l46 29 7 -43 c3 -24 4 -52
2 -63z m785 38 c-10 -11 -10 -14 -1 -9 6 4 12 3 12 -2 0 -13 -28 -23 -35 -12
-8 14 6 40 22 40 13 0 13 -2 2 -17z m231 -126 c0 -7 -7 -22 -16 -33 -14 -17
-15 -17 -10 -1 3 10 6 25 6 33 0 8 5 14 10 14 6 0 10 -6 10 -13z m34 -23 c11
-28 6 -38 -9 -18 -8 10 -15 22 -15 27 0 13 18 7 24 -9z m1396 -29 c-16 -20
-28 -19 -32 3 -5 26 13 42 30 25 11 -11 11 -17 2 -28z m150 20 c0 -20 -5 -25
-25 -25 -31 0 -32 13 -2 33 29 21 27 21 27 -8z m-1261 -33 c1 -7 -3 -10 -9 -7
-5 3 -10 18 -9 33 0 24 1 25 9 7 5 -11 9 -26 9 -33z m-176 5 c3 -7 -1 -24 -8
-37 l-13 -25 -7 27 c-10 38 15 69 28 35z m1407 -21 c0 -7 -5 -17 -10 -22 -6
-6 -12 -20 -15 -32 -3 -18 1 -22 19 -22 13 0 29 7 36 15 7 8 16 12 21 10 9 -6
-10 -56 -25 -66 -5 -4 -6 -15 -2 -24 4 -11 0 -25 -10 -36 -11 -12 -14 -27 -10
-45 4 -15 2 -32 -5 -40 -8 -10 -8 -18 0 -27 8 -10 7 -17 -1 -25 -8 -8 -8 -15
1 -26 16 -20 4 -39 -20 -33 -22 6 -26 -8 -4 -17 16 -6 21 -36 5 -36 -5 0 -17
-16 -26 -36 -18 -37 -10 -72 15 -67 14 4 6 -64 -9 -82 -8 -10 -7 -14 2 -18 10
-4 10 -7 -1 -15 -7 -5 -11 -15 -7 -21 11 -17 -22 -71 -44 -71 -11 0 -20 -7
-20 -15 0 -9 -7 -18 -15 -21 -24 -9 -18 -19 20 -33 19 -7 35 -19 35 -27 0 -16
16 -19 25 -4 10 17 25 11 25 -10 0 -11 -6 -20 -12 -21 -10 0 -10 -2 -1 -5 23
-10 -7 -47 -101 -127 -115 -100 -176 -138 -397 -249 -190 -96 -339 -148 -478
-168 -76 -12 -159 -9 -182 5 -11 7 -74 7 -169 1 -43 -3 -59 0 -75 14 -26 24
-71 35 -80 21 -22 -37 -186 -60 -282 -41 -80 16 -141 37 -173 60 -24 17 -28
26 -25 62 3 48 -13 109 -32 121 -19 12 -16 27 5 20 14 -5 15 -4 6 8 -19 24
-13 47 10 41 12 -3 27 -9 34 -15 7 -6 5 4 -5 21 -10 18 -26 35 -35 38 -10 3
-18 14 -18 24 0 25 46 36 66 15 9 -8 24 -15 34 -15 11 0 27 -11 35 -24 9 -13
27 -27 41 -30 17 -5 24 -13 24 -30 0 -28 47 -86 70 -86 9 0 26 -9 38 -20 22
-21 58 -28 46 -9 -3 6 0 15 7 20 12 8 12 11 -1 19 -8 6 -27 13 -42 16 -15 4
-25 11 -22 16 3 5 12 7 20 4 8 -3 14 1 14 9 0 21 8 19 41 -14 34 -34 34 -37
14 -58 -13 -12 -13 -18 -3 -30 11 -13 13 -13 18 3 6 17 7 17 13 0 5 -12 14
-16 26 -13 11 3 29 -2 41 -10 21 -15 22 -15 11 5 -6 11 -30 36 -53 56 -40 35
-46 55 -13 42 9 -3 13 -11 9 -18 -5 -8 -2 -9 9 -5 11 4 14 2 10 -9 -4 -10 0
-12 12 -8 12 5 16 2 13 -11 -2 -10 3 -20 10 -22 8 -3 10 1 5 14 -6 17 -5 17
16 -1 16 -15 18 -21 9 -28 -7 -4 -8 -8 -3 -8 22 0 35 17 28 36 -6 17 -5 18 12
4 19 -15 19 -14 1 14 -10 16 -13 25 -7 22 6 -4 11 -2 11 4 0 6 5 8 10 5 6 -3
10 1 10 10 0 9 -7 15 -15 13 -8 -2 -28 13 -44 32 -24 29 -29 31 -24 13 8 -32
-7 -28 -45 11 -29 30 -31 35 -15 39 16 4 15 6 -4 12 -13 4 -23 11 -23 16 0 5
-8 10 -17 10 -17 1 -17 2 0 6 17 4 23 24 11 36 -4 3 -15 2 -25 -3 -21 -12 -51
-2 -46 14 2 6 12 11 23 12 56 3 60 4 42 15 -22 12 -24 33 -3 26 8 -4 17 -2 20
4 4 5 -7 12 -24 15 -17 4 -31 10 -31 15 0 14 48 11 83 -5 64 -27 201 -40 275
-25 20 4 14 19 -8 19 -11 0 -20 4 -20 9 0 10 97 24 110 16 6 -4 10 7 10 24 0
25 -4 31 -21 31 -16 0 -20 5 -17 28 2 21 9 28 32 30 18 2 26 0 21 -7 -3 -6
-15 -11 -26 -11 -10 0 -19 -7 -19 -15 0 -13 7 -12 42 6 28 14 37 23 28 29 -17
11 7 25 40 23 14 -1 18 1 8 3 -20 6 -32 34 -15 35 7 0 3 4 -8 9 l-20 9 20 1
c11 1 28 2 38 1 9 -1 17 4 17 13 0 9 -6 16 -12 16 -9 0 -9 3 1 9 18 12 41 3
41 -15 0 -8 6 -11 15 -8 8 4 15 10 15 15 0 5 -7 9 -15 9 -24 0 -18 19 10 32
14 6 25 18 25 27 0 13 -2 13 -9 3 -11 -17 -21 -17 -32 0 -7 10 -9 10 -9 0 0
-7 -4 -10 -10 -7 -5 3 -10 -1 -10 -10 0 -10 -5 -13 -12 -9 -7 5 -9 2 -5 -8 7
-20 -34 -43 -63 -35 -16 4 -20 2 -16 -9 3 -8 1 -14 -4 -14 -6 0 -10 6 -11 13
0 9 -2 9 -5 0 -3 -7 -11 -10 -18 -7 -6 2 -29 -2 -49 -11 -40 -17 -87 -20 -87
-6 0 5 6 11 13 14 6 3 3 5 -8 6 -26 1 -53 5 -89 16 l-30 8 25 10 24 9 -32 14
c-44 19 -42 28 5 20 30 -5 33 -4 19 5 -11 6 -24 12 -30 13 -7 1 -18 6 -26 10
-10 6 -12 5 -7 -2 4 -7 2 -12 -4 -12 -7 0 -9 8 -5 20 3 10 -1 33 -10 50 -15
30 -15 33 1 51 15 16 20 17 33 5 9 -7 31 -16 48 -19 30 -6 32 -5 21 13 -7 10
-9 22 -6 26 11 10 78 -6 78 -19 0 -7 4 -6 10 3 15 22 30 -6 24 -45 l-4 -30 12
33 13 32 24 -22 23 -23 -16 27 c-21 32 -10 41 39 32 29 -5 35 -10 30 -25 -7
-23 3 -24 29 -4 28 21 44 19 49 -7 l4 -23 8 23 c5 16 13 22 26 19 10 -3 19 -1
21 4 2 5 18 0 36 -11 18 -11 31 -24 27 -29 -3 -5 4 -7 15 -4 29 8 25 20 -15
39 -37 17 -44 29 -21 37 33 13 96 -21 96 -52 0 -14 -2 -14 -10 -1 -7 12 -9 10
-8 -7 2 -21 28 -21 28 1 1 6 9 1 20 -12 11 -14 21 -18 25 -12 4 6 1 17 -5 25
-7 8 -8 15 -3 15 5 0 14 10 19 23 6 12 9 15 7 7 -2 -11 0 -11 11 3 32 41 46 3
21 -57 -7 -16 -6 -17 13 -7 19 10 22 9 22 -9 0 -12 -4 -18 -10 -15 -5 3 -10 1
-10 -4 0 -15 37 -14 42 1 3 7 -1 19 -8 25 -11 12 -18 93 -7 93 2 0 9 -14 15
-31 l11 -32 18 24 c10 13 19 30 19 37 0 7 11 17 25 22 46 17 86 53 82 72 -4
15 1 18 34 16 21 -1 36 -5 34 -9 -3 -4 1 -9 9 -12 8 -3 16 2 19 13 3 13 12 17
33 14 16 -2 23 -1 17 2 -18 8 -16 27 2 20 8 -3 15 -1 15 4 0 6 10 10 23 10 12
0 30 9 40 20 16 19 16 20 -3 20 -29 0 -44 35 -24 55 9 9 23 14 31 11 10 -4 13
-1 8 13 -5 15 -2 18 13 14 14 -3 21 2 25 17 4 16 11 21 22 16 11 -4 14 -2 9 6
-5 8 -2 9 11 5 14 -6 16 -3 12 15 -6 22 -5 22 8 4 19 -25 30 -14 15 14 -10 18
-9 24 1 31 7 4 17 5 21 2 5 -2 15 0 22 6 15 13 42 6 69 -17 11 -10 17 -11 17
-4 0 7 9 12 21 12 11 0 27 6 35 14 15 16 54 10 54 -8z m-110 4 c0 -5 -2 -10
-4 -10 -3 0 -8 5 -11 10 -3 6 -1 10 4 10 6 0 11 -4 11 -10z m-1273 -32 c-3 -8
-6 -5 -6 6 -1 11 2 17 5 13 3 -3 4 -12 1 -19z m163 18 c0 -3 -4 -8 -10 -11 -5
-3 -10 -1 -10 4 0 6 5 11 10 11 6 0 10 -2 10 -4z m804 -182 c4 -9 5 -19 3 -21
-7 -6 -57 19 -57 29 0 15 48 8 54 -8z m-204 -123 c0 -12 -21 -28 -50 -35 -24
-7 -24 -7 -5 8 11 8 25 20 30 25 13 13 25 14 25 2z m-103 -83 c-3 -8 -6 -5 -6
6 -1 11 2 17 5 13 3 -3 4 -12 1 -19z m-717 -39 c0 -4 -7 -6 -15 -3 -8 4 -15
10 -15 15 0 4 7 6 15 3 8 -4 15 -10 15 -15z m560 -4 c0 -8 -2 -15 -4 -15 -2 0
-6 7 -10 15 -3 8 -1 15 4 15 6 0 10 -7 10 -15z m851 -62 c-12 -20 -14 -14 -5
12 4 9 9 14 11 11 3 -2 0 -13 -6 -23z m-1500 -15 c10 -18 8 -19 -13 -13 -12 4
-30 14 -38 22 -13 14 -13 15 3 10 9 -4 17 -2 17 4 0 15 18 2 31 -23z m155
-165 c-7 -7 -26 7 -26 19 0 6 6 6 15 -2 9 -7 13 -15 11 -17z m171 -40 c-9 -9
-20 -13 -24 -9 -4 4 -1 11 7 16 25 16 35 11 17 -7z m-70 -55 c-3 -7 -5 -2 -5
12 0 14 2 19 5 13 2 -7 2 -19 0 -25z m1213 -4 c0 -11 -5 -14 -16 -10 -9 3 -20
6 -25 6 -5 0 -9 5 -9 10 0 6 11 10 25 10 16 0 25 -6 25 -16z m-1212 -57 c3
-12 -4 -17 -22 -17 -18 0 -26 5 -26 18 0 14 2 15 10 2 8 -13 10 -12 10 3 0 23
24 17 28 -6z m-113 -17 c3 -5 1 -10 -5 -10 -6 0 -9 -4 -6 -8 2 -4 -7 -7 -22
-6 -39 2 -42 3 -42 13 0 18 65 27 75 11z m-625 -30 c0 -5 -4 -10 -10 -10 -5 0
-10 5 -10 10 0 6 5 10 10 10 6 0 10 -4 10 -10z m15 -70 c3 -5 -1 -10 -10 -10
-9 0 -13 5 -10 10 3 6 8 10 10 10 2 0 7 -4 10 -10z m406 -167 c13 -16 12 -17
-3 -4 -10 7 -18 15 -18 17 0 8 8 3 21 -13z m-176 -3 c3 -5 -3 -10 -15 -10 -12
0 -18 5 -15 10 3 6 10 10 15 10 5 0 12 -4 15 -10z m125 -20 c0 -5 -2 -10 -4
-10 -3 0 -8 5 -11 10 -3 6 -1 10 4 10 6 0 11 -4 11 -10z"/>
<path d="M6205 9110 c-3 -5 -1 -10 4 -10 6 0 11 5 11 10 0 6 -2 10 -4 10 -3 0
-8 -4 -11 -10z"/>
<path d="M6015 9081 c-3 -6 -11 -9 -16 -6 -5 4 -9 1 -9 -4 0 -6 6 -11 14 -11
16 0 31 18 23 26 -3 3 -8 0 -12 -5z"/>
<path d="M5992 8919 c2 -6 8 -10 13 -10 5 0 11 4 13 10 2 6 -4 11 -13 11 -9 0
-15 -5 -13 -11z"/>
<path d="M5530 9010 c0 -5 5 -10 10 -10 6 0 10 5 10 10 0 6 -4 10 -10 10 -5 0
-10 -4 -10 -10z"/>
<path d="M5482 8920 c15 -23 28 -26 28 -6 0 8 -7 17 -16 20 -24 9 -25 8 -12
-14z"/>
<path d="M5338 8902 c-10 -2 -18 -8 -18 -13 0 -13 27 -11 35 2 9 13 4 16 -17
11z"/>
<path d="M7208 7753 c6 -2 18 -2 25 0 6 3 1 5 -13 5 -14 0 -19 -2 -12 -5z"/>
<path d="M6574 7740 c-12 -4 -24 -15 -27 -23 -4 -11 3 -10 34 5 53 25 48 40
-7 18z"/>
<path d="M7957 7720 c3 -11 11 -20 18 -20 7 0 18 -7 25 -15 7 -8 16 -12 21 -9
10 6 -46 64 -61 64 -5 0 -6 -9 -3 -20z"/>
<path d="M6695 7670 c-3 -6 1 -7 9 -4 18 7 21 14 7 14 -6 0 -13 -4 -16 -10z"/>
<path d="M8390 7480 c0 -5 10 -10 23 -10 18 0 19 2 7 10 -19 13 -30 13 -30 0z"/>
<path d="M6465 7470 c-3 -5 -1 -10 5 -10 7 0 10 -7 7 -14 -4 -10 -1 -13 9 -9
18 7 18 17 0 32 -10 8 -16 9 -21 1z"/>
<path d="M8388 7263 c6 -2 18 -2 25 0 6 3 1 5 -13 5 -14 0 -19 -2 -12 -5z"/>
<path d="M8345 7250 c3 -5 11 -10 16 -10 6 0 7 5 4 10 -3 6 -11 10 -16 10 -6
0 -7 -4 -4 -10z"/>
<path d="M8294 7205 c10 -8 23 -12 27 -9 17 10 9 20 -18 22 -26 1 -27 1 -9
-13z"/>
<path d="M8420 7100 c0 -5 5 -10 11 -10 5 0 7 5 4 10 -3 6 -8 10 -11 10 -2 0
-4 -4 -4 -10z"/>
<path d="M8604 7072 c0 -10 8 -18 18 -18 16 0 16 2 1 18 -9 10 -17 18 -17 18
-1 0 -2 -8 -2 -18z"/>
<path d="M8562 7043 c-9 -16 -5 -26 23 -59 18 -21 37 -36 40 -32 4 3 -7 19
-24 35 -19 18 -27 33 -21 39 5 5 5 15 1 23 -7 11 -11 10 -19 -6z"/>
<path d="M5800 7017 c-42 -39 -127 -90 -138 -83 -13 8 -60 -40 -110 -111 -31
-44 -27 -52 8 -18 17 16 30 24 30 17 0 -6 -6 -15 -12 -19 -7 -4 -23 -24 -36
-43 -18 -27 -12 -23 27 18 32 34 58 52 73 52 l23 0 -25 -20 c-20 -16 -22 -20
-7 -20 9 0 17 -3 17 -7 0 -5 17 -9 38 -10 20 -1 31 1 25 4 -19 7 -16 21 7 28
13 4 32 -2 53 -16 20 -15 27 -17 19 -6 -12 14 -12 19 1 32 9 8 23 12 31 9 11
-4 16 -1 16 10 0 20 14 21 29 2 9 -10 8 -16 -4 -26 -25 -21 -17 -31 13 -16 24
12 32 12 61 0 42 -18 46 -18 30 2 -11 13 -9 14 17 8 16 -4 37 -11 46 -15 21
-11 31 -11 24 0 -7 10 44 9 61 -2 6 -4 18 -4 26 -1 8 3 18 1 22 -5 3 -6 16
-11 28 -11 12 0 32 -6 44 -13 87 -49 99 -52 66 -14 -21 23 -6 17 42 -18 52
-37 59 -40 52 -21 -6 14 -4 15 15 5 16 -9 18 -13 7 -20 -16 -10 -17 -10 36
-13 57 -5 145 -34 152 -52 4 -10 9 -11 17 -5 7 6 17 6 26 1 8 -6 27 -10 42
-10 15 0 30 -4 33 -10 10 -16 28 -12 21 5 -3 9 0 15 10 15 9 0 12 5 8 12 -4 7
-3 8 5 4 6 -4 9 -12 6 -17 -4 -5 5 -13 19 -19 14 -5 26 -15 26 -21 0 -7 3 -10
6 -6 10 9 -35 169 -52 189 -19 20 -39 25 -28 6 4 -7 -8 1 -27 18 -19 17 -45
38 -59 47 -19 13 -20 17 -7 17 20 0 23 16 4 23 -8 3 -40 8 -71 12 -32 4 -53
11 -46 15 8 5 4 9 -12 13 -22 6 -22 7 -3 22 19 16 19 16 -5 9 -27 -9 -93 -7
-123 2 -14 4 -15 9 -7 19 6 8 17 12 25 9 7 -3 16 0 20 7 6 9 1 10 -19 7 -14
-3 -26 -2 -26 2 0 4 -32 8 -72 9 -77 2 -91 6 -82 24 3 7 -1 4 -10 -7 -8 -10
-20 -15 -26 -11 -6 4 -22 0 -35 -9 -24 -16 -25 -16 -22 6 2 24 -3 25 -53 14
-13 -3 -27 -1 -31 6 -7 11 -60 3 -58 -10 3 -18 -2 -26 -9 -14 -7 10 -15 9 -40
-3 -17 -9 -34 -20 -37 -26 -10 -15 -25 -10 -25 7 0 10 -6 14 -15 10 -8 -3 -15
-1 -15 4 0 6 4 10 8 10 5 0 9 7 9 16 0 11 -7 8 -22 -11 -15 -16 -28 -23 -39
-19 -21 8 -20 13 6 35 11 11 19 21 17 24 -3 2 -20 -11 -39 -28z m280 -27 c-6
-11 -16 -20 -22 -20 -6 0 -3 9 7 20 10 11 20 20 22 20 2 0 -1 -9 -7 -20z m636
-308 c-8 -7 -25 8 -37 31 -11 21 -10 21 15 -2 14 -14 24 -26 22 -29z m52 13
c-3 -3 -9 2 -12 12 -6 14 -5 15 5 6 7 -7 10 -15 7 -18z"/>
<path d="M8385 7040 c3 -5 10 -10 16 -10 5 0 9 5 9 10 0 6 -7 10 -16 10 -8 0
-12 -4 -9 -10z"/>
<path d="M8606 7031 c-3 -4 1 -17 9 -27 12 -16 16 -17 24 -4 5 8 7 18 4 24 -4
6 1 6 13 2 15 -6 16 -5 7 5 -10 10 -16 9 -29 -2 -12 -9 -15 -10 -10 -1 4 6 3
12 -3 12 -5 0 -12 -4 -15 -9z"/>
<path d="M8729 7023 c-13 -17 -13 -17 6 -3 11 8 22 16 24 17 2 2 0 3 -6 3 -6
0 -17 -8 -24 -17z"/>
<path d="M8415 7021 c-3 -5 -2 -12 3 -15 5 -3 9 1 9 9 0 17 -3 19 -12 6z"/>
<path d="M8455 7000 c-16 -7 -17 -9 -3 -9 9 -1 20 4 23 9 7 11 7 11 -20 0z"/>
<path d="M5905 6990 c-3 -5 -1 -10 4 -10 6 0 11 5 11 10 0 6 -2 10 -4 10 -3 0
-8 -4 -11 -10z"/>
<path d="M8428 6973 c6 -3 10 -9 6 -14 -3 -5 -1 -9 3 -9 5 0 18 -7 29 -15 18
-13 16 -14 -24 -15 -24 0 -41 3 -39 8 3 4 -15 8 -39 8 -24 1 -42 -2 -39 -6 2
-3 -4 -6 -13 -6 -66 0 -93 -5 -86 -15 5 -8 -1 -10 -20 -7 -14 3 -26 1 -26 -3
0 -5 6 -10 13 -11 6 0 -8 -4 -33 -7 l-45 -7 35 -12 35 -12 -35 6 c-53 7 -64 8
-81 0 -10 -4 -23 0 -34 10 -14 15 -18 15 -26 3 -5 -10 -3 -16 8 -20 25 -8 -2
-22 -28 -14 -11 4 -26 1 -34 -5 -8 -7 -32 -14 -52 -17 -21 -3 -40 -9 -43 -14
-3 -5 -46 -9 -95 -10 -99 -2 -91 -16 10 -19 51 -2 55 -3 28 -10 -18 -4 -41
-14 -50 -21 -11 -10 -14 -10 -9 -1 5 8 -1 12 -19 12 -14 0 -24 -4 -20 -9 3 -5
-21 -30 -53 -54 -64 -50 -90 -77 -74 -77 6 0 14 5 17 10 3 6 11 10 18 10 8 0
8 -3 -1 -12 -7 -7 -12 -27 -12 -46 l0 -33 26 28 c14 15 22 22 18 14 -5 -10 -3
-13 9 -8 12 4 14 2 10 -10 -4 -11 -3 -14 5 -9 21 13 64 18 57 6 -10 -17 11
-11 38 10 33 26 62 27 48 2 -9 -17 -5 -16 37 4 56 28 63 29 56 9 -8 -20 6 -18
36 5 31 24 41 25 33 3 -5 -13 -3 -15 13 -9 10 5 28 10 39 13 11 3 27 7 35 10
8 4 31 7 50 9 19 1 61 4 92 7 38 4 58 2 62 -6 3 -8 9 -6 19 6 16 19 37 23 37
6 0 -6 7 -8 17 -5 9 4 20 2 23 -5 7 -10 79 -16 211 -18 31 -1 54 -8 69 -21 13
-11 29 -20 37 -20 8 0 11 -5 8 -10 -3 -6 4 -14 17 -19 13 -6 19 -10 13 -10 -5
-1 10 -13 32 -28 23 -15 41 -31 40 -36 -1 -5 4 -12 12 -15 9 -3 11 0 7 9 -4 8
1 3 12 -11 20 -23 20 -26 4 -44 -13 -14 -14 -20 -4 -23 6 -3 12 -11 12 -18 0
-8 5 -17 12 -21 8 -5 9 -2 5 9 -3 10 -2 17 4 17 5 0 14 -11 19 -24 5 -13 14
-27 20 -31 5 -3 8 -11 5 -16 -3 -5 0 -6 8 -3 17 6 18 34 1 34 -6 0 -15 7 -18
16 -9 24 -7 31 4 14 8 -13 10 -12 10 3 0 10 -6 17 -12 16 -26 -3 -48 1 -48 9
0 5 13 9 30 9 24 0 31 -6 40 -31 8 -24 13 -28 20 -16 5 8 5 19 0 25 -5 7 -11
21 -13 33 -2 12 -7 25 -11 29 -4 5 -6 3 -4 -2 3 -11 -9 -14 -34 -7 -10 2 -18
9 -18 14 0 6 6 8 14 5 19 -7 28 16 32 77 2 33 0 45 -6 35 -5 -7 -7 -22 -4 -33
5 -13 3 -16 -7 -11 -9 6 -11 3 -6 -8 3 -10 2 -17 -3 -17 -10 0 -24 39 -17 47
3 3 -10 29 -28 58 -35 54 -35 65 -3 65 15 0 17 4 9 18 -7 13 -6 23 2 32 9 10
9 11 0 6 -7 -4 -13 -2 -13 3 0 6 -6 11 -14 11 -8 0 -18 9 -21 20 -3 11 -11 20
-16 20 -5 0 -9 11 -9 25 0 13 -8 29 -17 34 -17 10 -17 10 1 11 14 0 16 3 7 13
-6 8 -8 17 -4 20 12 13 23 7 23 -13 0 -11 7 -20 15 -20 13 0 14 4 4 21 -8 15
-8 19 0 15 6 -4 11 -3 11 3 0 5 -9 13 -20 16 -12 4 -20 15 -20 28 1 20 2 20
11 5 12 -21 26 -23 32 -5 2 6 3 5 2 -4 -3 -20 13 -49 27 -49 7 0 7 5 -1 14 -9
11 -9 15 1 19 10 4 10 6 1 6 -7 1 -13 8 -13 16 0 8 -18 26 -40 40 -44 28 -57
32 -43 13 12 -17 14 -60 2 -53 -5 4 -9 0 -9 -7 0 -9 -3 -9 -10 2 -6 10 -10 11
-10 3 0 -7 -8 -13 -17 -14 -11 0 -13 -3 -5 -6 6 -2 10 -9 7 -13 -3 -5 4 -14
16 -21 17 -9 19 -13 8 -20 -19 -12 -39 -11 -39 2 0 5 5 7 10 4 15 -9 12 4 -4
21 -8 8 -21 14 -28 14 -8 0 -9 -3 -3 -8 6 -4 11 -13 13 -20 2 -10 -2 -10 -19
-2 -11 7 -18 14 -15 17 10 10 -43 32 -65 28 -15 -3 -19 0 -15 11 4 11 2 12
-12 5 -11 -6 -21 -5 -29 5 -11 11 -6 13 26 11 34 -2 37 -1 27 15 -6 10 -16 18
-23 18 -6 0 -13 6 -15 12 -4 10 -10 10 -32 0 -15 -7 -25 -8 -22 -4 3 5 -9 9
-27 9 -18 1 -26 -1 -19 -4z m97 -23 c3 -5 1 -10 -4 -10 -6 0 -11 5 -11 10 0 6
2 10 4 10 3 0 8 -4 11 -10z m263 -25 c-3 -3 -9 2 -12 12 -6 14 -5 15 5 6 7 -7
10 -15 7 -18z m-518 -35 c0 -5 -7 -7 -15 -4 -8 4 -15 8 -15 10 0 2 7 4 15 4 8
0 15 -4 15 -10z m472 -22 c-6 -6 -15 -8 -19 -4 -4 4 -1 11 7 16 19 12 27 3 12
-12z m133 -468 c3 -5 1 -10 -4 -10 -6 0 -11 5 -11 10 0 6 2 10 4 10 3 0 8 -4
11 -10z"/>
<path d="M8690 6947 c0 -18 33 -16 36 2 2 7 0 7 -3 1 -3 -8 -9 -7 -19 1 -11 9
-14 8 -14 -4z"/>
<path d="M8590 6940 c0 -5 5 -10 11 -10 5 0 7 5 4 10 -3 6 -8 10 -11 10 -2 0
-4 -4 -4 -10z"/>
<path d="M8640 6920 c0 -6 7 -10 15 -10 8 0 15 2 15 4 0 2 -7 6 -15 10 -8 3
-15 1 -15 -4z"/>
<path d="M6700 6910 c0 -5 12 -10 28 -10 21 0 24 2 12 10 -20 13 -40 13 -40 0z"/>
<path d="M6711 6886 c9 -10 59 -14 54 -5 -4 5 -18 9 -32 9 -15 0 -24 -2 -22
-4z"/>
<path d="M6680 6870 c0 -5 9 -10 19 -10 30 0 82 -49 103 -97 10 -24 17 -47 14
-51 -9 -15 21 -85 38 -88 9 -1 16 2 16 7 0 5 -4 9 -9 9 -7 0 -14 19 -27 80 -7
36 -48 107 -72 126 -31 24 -82 39 -82 24z"/>
<path d="M8795 6790 c4 -6 11 -8 16 -5 14 9 11 15 -7 15 -8 0 -12 -5 -9 -10z"/>
<path d="M7663 6771 c0 -11 5 -18 9 -15 4 3 5 11 1 19 -7 21 -12 19 -10 -4z"/>
<path d="M7565 6770 c-3 -5 -1 -10 4 -10 6 0 11 5 11 10 0 6 -2 10 -4 10 -3 0
-8 -4 -11 -10z"/>
<path d="M5790 6751 c0 -5 -8 -7 -18 -4 -12 3 -19 -1 -19 -11 0 -8 4 -13 8
-10 5 3 26 -7 49 -21 22 -14 40 -22 40 -18 0 12 -16 35 -24 34 -19 -3 -26 0
-26 10 0 5 6 7 13 3 8 -5 8 -2 -2 9 -15 19 -21 21 -21 8z"/>
<path d="M8820 6751 c0 -6 5 -13 10 -16 6 -3 10 1 10 9 0 9 -4 16 -10 16 -5 0
-10 -4 -10 -9z"/>
<path d="M8900 6751 c0 -6 5 -13 10 -16 6 -3 10 1 10 9 0 9 -4 16 -10 16 -5 0
-10 -4 -10 -9z"/>
<path d="M7614 6709 c-19 -22 -19 -22 3 -10 24 12 39 31 25 31 -5 0 -17 -10
-28 -21z"/>
<path d="M7555 6676 c-21 -50 -15 -61 11 -21 14 21 18 38 13 46 -6 10 -13 3
-24 -25z"/>
<path d="M5725 6680 c3 -5 11 -10 16 -10 6 0 7 5 4 10 -3 6 -11 10 -16 10 -6
0 -7 -4 -4 -10z"/>
<path d="M8840 6677 c0 -25 35 -56 51 -46 10 6 10 9 1 9 -7 0 -17 11 -22 25
-10 27 -30 34 -30 12z"/>
<path d="M5630 6631 c0 -6 -5 -10 -11 -8 -6 1 -13 -7 -15 -18 -1 -11 -14 -28
-28 -38 -26 -19 -37 -45 -13 -31 9 6 9 5 -1 -8 -7 -8 -11 -24 -11 -34 3 -33
-1 -55 -9 -50 -16 9 -7 -40 10 -58 23 -25 23 -37 1 -30 -15 5 -14 3 2 -10 11
-8 25 -20 32 -26 7 -5 17 -10 23 -10 5 0 10 -5 10 -11 0 -6 6 -9 14 -6 15 6
90 -14 125 -33 12 -6 21 -17 21 -25 0 -7 7 -21 16 -30 9 -9 13 -19 10 -23 -11
-10 262 -102 333 -112 36 -6 68 -15 72 -21 4 -7 9 -7 13 -1 3 5 22 6 46 2 21
-4 37 -4 35 0 -3 5 1 10 9 13 9 4 13 -2 12 -16 -1 -23 -17 -25 -103 -14 -28 3
-32 1 -29 -17 4 -28 50 -45 76 -28 27 17 38 15 14 -2 -25 -19 -11 -34 36 -38
28 -2 36 -8 38 -27 3 -19 6 -21 13 -10 8 11 14 9 32 -13 16 -19 28 -26 43 -22
14 4 23 0 28 -11 4 -11 12 -14 25 -10 12 3 26 -3 42 -19 20 -21 57 -26 44 -7
-5 9 53 7 62 -2 3 -4 12 -2 19 4 7 6 39 13 71 16 63 7 119 36 146 76 15 23 44
58 80 97 8 8 26 38 40 65 28 57 78 112 110 124 12 4 42 7 66 6 39 -1 49 -7 87
-49 25 -26 42 -52 39 -57 -4 -5 -2 -9 4 -9 5 0 12 -13 16 -30 4 -16 11 -30 16
-30 6 0 7 -4 4 -10 -3 -5 -1 -10 6 -10 7 0 9 -8 6 -21 -3 -12 0 -40 8 -63 7
-22 21 -76 30 -118 12 -54 25 -87 45 -109 15 -18 25 -40 23 -50 -3 -9 4 -26
14 -36 11 -11 23 -28 26 -37 4 -10 13 -16 21 -13 10 4 18 -5 26 -28 9 -27 16
-33 32 -30 12 3 24 8 27 13 7 10 52 1 52 -10 -1 -5 -1 -11 -1 -16 0 -4 13 -13
30 -20 16 -8 29 -17 29 -20 -4 -28 3 -52 16 -52 9 0 12 -6 9 -17 -5 -15 -4
-16 5 -2 5 8 8 24 7 35 -2 10 0 31 5 47 6 21 4 27 -8 27 -9 0 -14 3 -10 6 11
11 -20 58 -70 111 -26 27 -55 59 -63 71 -8 12 -22 25 -32 27 -27 9 -45 110
-22 119 8 3 13 2 10 -2 -3 -5 2 -9 10 -9 8 0 13 6 10 13 -5 14 10 30 16 16 9
-22 76 -51 118 -50 43 1 154 -26 175 -42 6 -4 33 -7 60 -5 56 2 78 -3 69 -16
-3 -5 2 -9 10 -9 9 0 16 -4 16 -10 0 -5 6 -7 13 -4 8 3 31 -1 53 -8 62 -21 89
-18 89 12 0 21 5 25 31 25 17 0 38 8 48 18 10 9 19 17 21 17 3 0 1 -8 -2 -17
-6 -16 -5 -16 10 -4 15 12 17 11 17 -3 0 -9 5 -16 10 -16 6 0 10 5 10 10 0 7
7 7 21 -1 14 -7 19 -7 15 0 -4 6 9 17 30 26 33 14 39 14 54 0 21 -19 31 -19
24 -1 -4 10 1 15 13 14 10 0 25 1 33 3 10 3 15 -3 15 -16 1 -11 7 -19 13 -17
7 1 22 -2 32 -8 22 -12 27 -1 8 18 -9 9 -8 12 5 12 14 0 16 6 11 26 -4 17 -2
29 7 35 12 8 12 10 -1 18 -18 12 -8 23 23 27 15 1 26 -5 33 -19 6 -15 16 -21
30 -19 13 2 24 -4 28 -13 4 -11 13 -14 25 -10 10 3 30 1 45 -4 21 -9 26 -8 26
4 0 8 5 15 10 15 6 0 10 9 10 21 0 13 -4 18 -12 13 -8 -5 -9 -2 -5 9 4 10 -2
23 -17 34 -12 10 -21 24 -18 31 2 6 -2 12 -10 12 -17 1 -49 44 -51 70 -1 10
-5 16 -9 14 -4 -3 -8 3 -8 13 0 10 -11 35 -25 55 -30 45 -32 62 -5 53 27 -8
25 -1 -7 35 -15 17 -36 30 -50 30 -29 0 -30 -12 -1 -25 13 -6 24 -18 26 -28 3
-16 1 -17 -18 -7 -12 6 -28 9 -36 6 -8 -3 -14 -1 -14 4 0 4 -34 25 -75 46 -80
40 -95 56 -42 49 17 -3 25 -2 17 2 -8 3 -21 12 -28 20 -16 16 -36 17 -62 3
-13 -7 -22 -6 -32 4 -10 10 -20 11 -31 4 -10 -5 -21 -7 -26 -4 -16 11 -165 36
-267 46 -121 12 -112 12 -151 4 -24 -5 -33 -3 -33 7 -1 10 -5 8 -14 -4 -9 -12
-16 -14 -21 -7 -3 5 -11 8 -16 5 -5 -4 -9 0 -9 7 0 8 -4 6 -11 -4 -8 -15 -13
-16 -30 -5 -17 10 -22 9 -34 -7 -7 -10 -18 -15 -23 -12 -5 3 -12 -4 -15 -15
-4 -14 -11 -20 -21 -16 -10 4 -16 -1 -18 -16 -2 -14 -10 -21 -20 -21 -10 1
-15 -2 -12 -7 3 -5 11 -9 19 -9 7 0 15 -5 17 -11 3 -8 14 -8 42 -1 50 14 39 4
-37 -33 -47 -23 -61 -34 -59 -49 2 -11 -1 -16 -10 -13 -7 2 -21 0 -30 -4 -12
-7 -18 -4 -23 10 -3 11 -12 18 -19 15 -7 -3 -18 7 -26 21 -7 14 -20 24 -28 23
-8 -2 -16 5 -18 15 -1 11 -6 22 -9 25 -4 4 -6 0 -5 -8 4 -29 0 -39 -15 -34 -8
4 -15 15 -15 26 0 16 -5 19 -25 16 -14 -3 -28 -2 -30 2 -5 8 -101 4 -149 -6
-26 -6 -28 -5 -21 17 l8 24 -24 -20 c-13 -11 -18 -13 -11 -5 18 20 15 29 -8
23 -12 -3 -20 0 -20 6 0 7 -4 9 -10 6 -5 -3 -10 -1 -10 5 0 6 -5 8 -10 5 -6
-4 -10 -3 -9 2 4 21 -3 32 -21 38 -11 3 -20 14 -20 24 0 19 -52 37 -71 25 -5
-3 -6 2 -3 10 3 9 1 16 -5 16 -6 0 -11 -6 -11 -12 0 -9 -3 -9 -9 1 -5 8 -16
11 -25 8 -9 -4 -16 -2 -16 4 0 6 -7 17 -15 26 -8 8 -13 19 -10 24 4 5 1 9 -5
9 -6 0 -13 -6 -16 -14 -3 -8 -14 -13 -25 -11 -22 4 -24 -1 -7 -19 7 -7 22 -11
33 -8 17 5 18 3 7 -11 -7 -8 -22 -14 -33 -12 -18 4 -20 0 -14 -25 4 -19 3 -30
-4 -30 -6 0 -11 11 -11 24 0 27 -16 44 -23 24 -3 -10 -7 -10 -20 1 -13 10 -20
11 -31 2 -10 -9 -15 -8 -20 4 -3 8 -14 15 -23 15 -10 0 -25 9 -33 19 -10 15
-18 17 -31 10 -26 -14 -33 -11 -18 8 13 15 11 16 -13 10 -24 -6 -133 12 -156
27 -17 10 -145 21 -255 21 -102 0 -108 1 -113 22 -5 20 -46 40 -69 33 -11 -3
-14 -3 -60 4 -42 6 -106 31 -99 39 3 3 3 11 -1 17 -5 8 -14 7 -31 -4 -26 -18
-35 -20 -33 -8 4 21 -3 24 -15 7 -14 -19 -14 -19 -35 -1 -20 18 -23 18 -38 4
-14 -15 -18 -15 -39 -1 -15 10 -24 11 -24 4z m426 -118 c-4 -4 -11 -2 -15 5
-4 7 -16 10 -27 7 -18 -6 -18 -6 1 9 17 14 21 14 34 1 8 -8 11 -18 7 -22z
m301 -54 c17 -6 34 -16 37 -24 3 -9 0 -12 -10 -8 -7 3 -14 0 -14 -7 0 -8 -13
-9 -42 -5 -24 3 -55 7 -71 9 -28 3 -51 16 -27 16 7 0 10 3 7 7 -4 3 -2 12 4
20 12 14 52 11 116 -8z m103 -35 l25 -15 -25 7 c-14 3 -29 10 -34 15 -16 14 6
10 34 -7z m350 -118 c-13 -13 -21 -4 -23 25 0 13 -6 27 -12 32 -6 4 -5 10 5
16 11 8 17 1 27 -27 8 -23 9 -40 3 -46z m-518 39 c0 -5 -5 -11 -11 -13 -6 -2
-11 4 -11 13 0 9 5 15 11 13 6 -2 11 -8 11 -13z m48 -5 c0 -5 -7 -10 -15 -10
-8 0 -15 5 -15 10 0 6 7 10 15 10 8 0 15 -4 15 -10z m182 -14 c98 -43 80 -75
-43 -80 -61 -3 -69 -1 -63 13 13 34 22 71 17 71 -4 0 -4 3 -1 6 4 3 17 0 30
-7 21 -11 22 -11 9 4 -18 22 -14 22 51 -7z m-412 -22 c0 -16 -35 -19 -45 -5
-6 11 26 32 37 25 5 -3 8 -12 8 -20z m2013 20 c16 -5 17 -8 6 -15 -10 -6 -8
-9 9 -9 12 0 22 -5 22 -11 0 -6 9 -8 20 -4 14 5 20 2 20 -10 0 -23 -18 -27
-106 -18 -70 7 -79 10 -76 28 3 17 2 17 -14 4 -16 -13 -17 -12 -11 4 4 10 7
22 7 26 0 10 96 14 123 5z m127 -65 c0 -15 -18 -19 -23 -6 -3 8 1 14 9 14 8 0
14 -4 14 -8z m-395 -49 c-3 -5 -1 -10 5 -10 6 0 8 -6 4 -12 -4 -8 -3 -10 2 -5
5 5 9 14 9 20 0 24 21 15 24 -10 7 -78 10 -73 -36 -73 -51 0 -58 13 -37 59 11
22 23 41 27 41 5 0 5 -4 2 -10z m-1811 -22 c-5 -7 -2 -9 8 -5 9 3 24 0 34 -8
13 -9 24 -10 36 -4 10 5 30 8 45 7 16 -1 35 2 42 7 10 6 12 4 6 -5 -6 -10 -4
-12 7 -7 9 3 21 0 27 -6 9 -9 14 -8 21 3 5 8 6 18 4 22 -3 4 2 8 10 8 9 0 13
-6 10 -14 -4 -11 9 -15 66 -18 39 -1 78 1 86 5 8 5 25 7 37 5 34 -6 -51 -28
-125 -32 -35 -3 -72 -8 -82 -12 -14 -5 -17 -4 -12 4 11 18 -9 14 -24 -3 -10
-12 -25 -15 -63 -11 -27 4 -53 9 -59 12 -5 3 -23 7 -39 8 -16 1 -37 10 -47 19
-15 16 -15 19 -2 27 20 13 23 12 14 -2z m1757 -20 c-12 -31 -37 -53 -46 -38
-3 5 -1 10 4 10 6 0 11 5 11 11 0 5 -4 8 -9 5 -5 -3 -11 0 -14 8 -6 15 19 30
33 21 5 -3 12 0 15 6 12 18 16 3 6 -23z m267 10 c-6 -18 -28 -21 -28 -4 0 9 7
16 16 16 9 0 14 -5 12 -12z m42 -3 c0 -8 -4 -15 -9 -15 -13 0 -22 16 -14 24
11 11 23 6 23 -9z m190 -55 c0 -9 -71 -33 -78 -25 -2 2 -1 13 3 25 5 15 12 19
27 14 15 -4 18 -3 13 6 -6 9 -3 9 14 1 11 -7 21 -16 21 -21z m-589 -72 l34
-28 -31 9 c-36 10 -84 40 -84 51 0 14 45 -4 81 -32z m114 6 c22 -8 54 -16 72
-17 17 -1 29 -6 26 -11 -3 -5 21 -7 55 -4 38 3 63 0 65 -6 3 -7 37 -11 88 -10
46 1 91 -3 100 -7 13 -6 18 -3 22 12 5 17 11 20 31 15 14 -3 26 -1 28 5 3 9 9
9 25 1 12 -7 35 -9 52 -6 20 4 39 1 55 -9 16 -11 27 -12 34 -5 7 7 16 4 30
-10 22 -22 34 -19 25 6 -4 12 2 10 20 -7 25 -22 25 -25 9 -36 -9 -7 -36 -13
-60 -13 -23 -1 -58 -9 -78 -17 -19 -8 -38 -14 -42 -13 -4 1 -15 -2 -25 -7 -10
-4 -75 -5 -145 -2 -105 4 -139 9 -197 31 -38 14 -77 34 -85 44 -8 9 -26 18
-40 19 -36 2 -152 43 -170 60 -13 13 -10 14 25 8 22 -4 58 -13 80 -21z m-1565
-44 c13 -8 13 -10 -2 -10 -9 0 -20 5 -23 10 -8 13 5 13 25 0z m1535 -18 c-3
-3 -11 0 -18 7 -9 10 -8 11 6 5 10 -3 15 -9 12 -12z m194 -67 c27 -16 272 -50
388 -53 18 -1 43 -7 55 -14 23 -12 23 -12 -7 -18 -19 -4 -36 -1 -47 8 -12 10
-22 11 -35 4 -39 -21 -310 10 -350 41 -7 5 -17 6 -23 2 -16 -10 -52 5 -46 20
3 8 0 16 -7 18 -7 3 5 3 27 1 21 -2 41 -6 45 -9z m-84 -5 c3 -5 1 -10 -4 -10
-6 0 -11 5 -11 10 0 6 2 10 4 10 3 0 8 -4 11 -10z m705 -70 c0 -5 -4 -10 -10
-10 -5 0 -10 5 -10 10 0 6 5 10 10 10 6 0 10 -4 10 -10z m-60 -10 c0 -13 -11
-13 -30 0 -12 8 -11 10 8 10 12 0 22 -4 22 -10z m-400 -80 c8 -5 12 -11 9 -14
-3 -3 -14 1 -25 9 -21 16 -8 20 16 5z m35 -10 c3 -5 1 -10 -4 -10 -6 0 -11 5
-11 10 0 6 2 10 4 10 3 0 8 -4 11 -10z"/>
<path d="M6005 6609 c-4 -6 -5 -13 -2 -16 7 -7 27 6 27 18 0 12 -17 12 -25 -2z"/>
<path d="M7066 6591 c-7 -11 3 -41 13 -41 18 0 30 24 20 37 -13 15 -26 17 -33
4z"/>
<path d="M8966 6527 c3 -10 9 -15 12 -12 3 3 0 11 -7 18 -10 9 -11 8 -5 -6z"/>
<path d="M8925 6521 c-3 -5 -1 -12 5 -16 5 -3 10 1 10 9 0 18 -6 21 -15 7z"/>
<path d="M6737 6479 c7 -7 15 -10 18 -7 3 3 -2 9 -12 12 -14 6 -15 5 -6 -5z"/>
<path d="M8971 6474 c0 -11 3 -14 6 -6 3 7 2 16 -1 19 -3 4 -6 -2 -5 -13z"/>
<path d="M8968 6358 c-10 -25 6 -42 22 -23 7 8 10 18 6 22 -3 3 -6 0 -7 -8 0
-8 -3 -6 -8 5 -6 16 -9 17 -13 4z"/>
<path d="M5127 6328 c-3 -11 -2 -44 4 -71 5 -28 6 -60 3 -71 -6 -18 -13 -116
-15 -206 0 -14 5 -39 11 -55 13 -35 21 -27 46 50 9 28 25 62 36 77 10 15 25
62 34 104 16 86 21 70 -49 149 -15 16 -27 33 -27 37 0 18 -38 6 -43 -14z"/>
<path d="M8970 6226 c0 -9 30 -14 35 -6 4 6 -3 10 -14 10 -12 0 -21 -2 -21 -4z"/>
<path d="M8960 6171 c0 -5 5 -13 10 -16 6 -3 10 -2 10 4 0 5 -4 13 -10 16 -5
3 -10 2 -10 -4z"/>
<path d="M8910 6120 c0 -5 5 -10 10 -10 6 0 10 5 10 10 0 6 -4 10 -10 10 -5 0
-10 -4 -10 -10z"/>
<path d="M8965 5950 c4 -6 11 -8 16 -5 14 9 11 15 -7 15 -8 0 -12 -5 -9 -10z"/>
<path d="M9116 5805 c-9 -26 -7 -32 5 -12 6 10 9 21 6 23 -2 3 -7 -2 -11 -11z"/>
<path d="M8922 5794 c10 -10 20 -15 24 -12 3 4 -5 12 -18 18 -22 12 -22 12 -6
-6z"/>
<path d="M6637 5714 c-11 -12 -8 -26 4 -18 6 3 15 0 21 -7 7 -11 8 -10 6 5 -3
21 -20 31 -31 20z"/>
<path d="M8230 5701 c0 -25 6 -27 13 -6 4 8 2 17 -3 20 -6 4 -10 -3 -10 -14z"/>
<path d="M8800 5709 c0 -5 5 -7 10 -4 6 3 10 8 10 11 0 2 -4 4 -10 4 -5 0 -10
-5 -10 -11z"/>
<path d="M8265 5690 c-3 -6 1 -7 9 -4 18 7 21 14 7 14 -6 0 -13 -4 -16 -10z"/>
<path d="M6569 5647 c-38 -34 -110 -128 -123 -162 -12 -31 -16 -85 -6 -85 5 0
7 -6 4 -14 -3 -8 6 -26 21 -40 l26 -26 -5 33 c-10 57 -10 71 -2 107 11 49 47
108 95 155 37 35 53 66 34 65 -5 -1 -24 -15 -44 -33z"/>
<path d="M9112 5635 c0 -16 2 -22 5 -12 2 9 2 23 0 30 -3 6 -5 -1 -5 -18z"/>
<path d="M8449 5635 c18 -8 36 -15 40 -15 13 1 -45 29 -59 29 -8 0 0 -6 19
-14z"/>
<path d="M9158 5535 c-16 -21 -17 -29 -5 -74 l13 -51 12 33 c13 37 16 117 5
117 -5 0 -16 -11 -25 -25z"/>
<path d="M9160 5365 c0 -8 2 -15 4 -15 2 0 6 7 10 15 3 8 1 15 -4 15 -6 0 -10
-7 -10 -15z"/>
<path d="M7741 5354 c0 -11 3 -14 6 -6 3 7 2 16 -1 19 -3 4 -6 -2 -5 -13z"/>
<path d="M5289 5339 c-12 -7 -12 -9 1 -9 9 0 16 -9 17 -19 1 -14 -4 -19 -17
-16 -17 3 -39 -12 -38 -25 3 -17 -16 -88 -27 -106 -8 -13 -12 -39 -9 -70 2
-27 5 -62 7 -79 1 -21 -2 -29 -11 -27 -8 1 -11 -2 -7 -8 5 -8 11 -8 20 0 15
12 35 6 35 -11 0 -5 -7 -9 -15 -9 -9 0 -15 -9 -15 -22 0 -21 0 -21 15 -2 14
17 15 15 9 -26 -4 -33 -3 -41 5 -30 9 12 11 10 11 -10 0 -20 2 -22 10 -10 5 8
7 23 4 34 -4 12 -2 16 5 11 7 -4 11 -14 9 -23 -3 -24 12 -76 25 -84 7 -4 6
-12 -4 -24 -9 -11 -9 -15 -1 -10 7 4 12 2 12 -8 0 -8 6 -16 13 -19 9 -3 9 -8
-2 -21 -12 -15 -12 -17 0 -14 8 2 13 -3 11 -12 -3 -12 -1 -13 9 -2 15 14 33
16 25 3 -4 -5 -2 -11 4 -13 6 -2 13 -26 17 -55 3 -32 11 -54 20 -58 11 -4 13
-1 9 12 -6 14 -4 14 15 -3 12 -10 19 -13 15 -6 -4 6 -2 12 3 12 6 0 11 -6 11
-13 0 -19 27 -53 35 -45 4 4 -2 23 -14 43 -22 38 -26 49 -13 42 14 -9 5 69
-14 113 -20 49 -20 66 3 92 13 14 13 19 0 40 -21 32 -31 85 -17 93 5 3 7 12 3
18 -4 7 -6 24 -4 39 2 19 -3 28 -18 33 -21 6 -29 25 -11 25 6 0 9 21 8 49 -2
36 -6 48 -18 47 -12 -1 -15 10 -14 52 2 42 -1 52 -15 52 -14 0 -14 2 -1 10 16
10 8 14 -24 10 -12 -1 -16 2 -10 11 5 9 2 10 -10 6 -9 -4 -15 -3 -11 2 15 25
-21 56 -46 40z m11 -86 c0 -10 -4 -14 -8 -8 -4 6 -11 13 -16 18 -5 4 -2 7 7 7
10 0 17 -8 17 -17z m167 -435 c-3 -8 -6 -5 -6 6 -1 11 2 17 5 13 3 -3 4 -12 1
-19z"/>
<path d="M6527 5318 c9 -18 19 -40 23 -48 4 -8 11 -14 16 -12 4 2 12 -6 16
-18 4 -12 17 -24 28 -27 11 -3 20 -12 20 -21 0 -13 3 -13 19 2 26 23 56 17 55
-11 0 -12 3 -20 8 -17 4 3 8 2 8 -3 -1 -12 -48 -63 -59 -63 -22 0 -21 -21 3
-47 15 -15 26 -33 26 -39 0 -6 19 -23 42 -38 35 -23 46 -26 65 -17 14 7 23 19
23 34 0 13 7 32 15 43 8 10 14 28 14 39 -1 18 -2 18 -6 2 -4 -16 -7 -15 -19 8
-17 33 -17 38 -3 29 7 -4 9 1 7 12 -2 11 -10 18 -16 17 -18 -4 -15 3 13 31 14
14 25 34 25 46 0 14 7 20 23 21 12 0 32 2 45 3 14 2 22 -3 22 -12 0 -23 42
-54 65 -48 11 3 23 6 26 6 4 0 10 7 13 16 9 24 -79 107 -137 129 -36 14 -63
16 -112 12 -65 -6 -140 -36 -147 -59 -3 -7 -21 -13 -41 -13 -19 -1 -33 3 -31
7 5 8 -48 68 -60 68 -3 0 2 -15 11 -32z m281 -24 c15 -10 22 -24 20 -37 -3
-20 -9 -22 -60 -22 -53 0 -71 6 -50 18 4 2 0 2 -8 -1 -40 -12 -60 -13 -77 -3
-17 10 -17 10 0 11 9 0 34 9 55 20 33 18 38 19 49 4 10 -14 13 -13 23 5 13 25
19 26 48 5z m-12 -165 c3 -6 1 -16 -6 -22 -10 -9 -11 -9 -5 2 4 8 2 17 -6 22
-9 6 -10 9 -2 9 6 0 15 -5 19 -11z m-66 -3 c0 -3 -4 -8 -10 -11 -5 -3 -10 -1
-10 4 0 6 5 11 10 11 6 0 10 -2 10 -4z"/>
<path d="M7343 5273 c-48 -31 -52 -39 -22 -48 14 -5 33 2 58 19 20 14 50 26
65 26 43 0 26 25 -20 28 -29 2 -50 -4 -81 -25z"/>
<path d="M7510 5265 c8 -10 14 -30 13 -44 -2 -23 -2 -24 6 -6 5 11 10 14 10 7
1 -10 5 -9 17 3 14 14 15 18 3 30 -8 7 -25 16 -39 20 -23 7 -24 7 -10 -10z"/>
<path d="M7462 5184 c-50 -45 -54 -61 -11 -39 16 9 47 18 67 21 42 5 69 24 27
20 -19 -3 -29 2 -34 17 -7 18 -10 17 -49 -19z"/>
<path d="M6561 5164 c0 -11 3 -14 6 -6 3 7 2 16 -1 19 -3 4 -6 -2 -5 -13z"/>
<path d="M6605 5140 c-3 -5 4 -7 15 -5 23 4 24 1 9 -27 -10 -19 -9 -18 20 3
17 12 29 24 27 26 -8 9 -66 11 -71 3z"/>
<path d="M5183 5063 c-13 -20 -14 -28 -5 -31 10 -3 10 -7 1 -18 -9 -11 -8 -14
2 -14 8 0 20 4 27 9 10 6 10 10 -2 20 -11 9 -13 19 -6 37 12 32 5 31 -17 -3z"/>
<path d="M6500 5047 c-14 -17 -24 -36 -22 -42 2 -5 -9 2 -25 17 -27 25 -29 26
-57 11 -20 -11 -31 -12 -39 -4 -19 19 -35 12 -73 -29 -31 -33 -40 -38 -56 -29
-15 8 -24 7 -39 -7 -17 -15 -19 -15 -19 -1 0 14 -3 14 -26 3 -14 -8 -31 -22
-39 -32 -8 -11 -14 -14 -15 -6 0 20 -16 14 -16 -7 0 -11 4 -17 8 -15 12 8 10
-10 -3 -23 -8 -8 -7 -20 4 -44 30 -65 26 -85 -18 -93 -32 -6 -59 -26 -36 -26
6 0 8 -7 5 -15 -4 -8 -10 -12 -16 -9 -5 3 -18 -3 -29 -15 -11 -12 -25 -18 -31
-15 -8 5 -9 1 -5 -10 4 -10 7 -19 7 -21 0 -3 9 -9 20 -15 16 -9 18 -8 14 5 -5
12 2 15 32 15 29 0 35 -3 24 -10 -13 -9 -13 -10 0 -11 8 -1 18 -1 23 0 4 0 6
-4 5 -11 -2 -6 14 -20 35 -31 20 -11 37 -26 37 -34 0 -7 5 -13 11 -13 6 0 8
-7 5 -16 -3 -8 -2 -12 4 -9 6 3 10 -1 10 -9 0 -9 5 -16 10 -16 6 0 9 -3 8 -7
-2 -5 4 -27 11 -51 13 -38 13 -45 0 -53 -11 -7 -11 -9 0 -9 10 0 11 -3 2 -13
-8 -11 -6 -18 9 -32 15 -13 17 -22 9 -36 -7 -13 -6 -19 1 -19 6 0 8 -4 5 -10
-3 -5 -2 -10 4 -10 5 0 13 5 16 11 4 6 13 8 21 5 8 -3 11 0 7 10 -8 21 15 17
27 -5 13 -25 13 -41 0 -21 -5 8 -10 11 -10 5 0 -19 18 -37 31 -33 19 6 40 -17
33 -36 -5 -12 -2 -15 10 -10 11 4 19 -1 25 -17 9 -24 9 -24 16 5 l8 29 14 -27
c8 -14 11 -31 8 -36 -3 -6 4 -10 17 -11 22 0 22 -1 3 -9 -18 -8 -18 -9 -2 -9
10 -1 25 6 33 14 16 15 39 11 67 -13 9 -8 20 -12 24 -9 10 10 43 -24 37 -37
-3 -6 1 -3 9 6 11 14 20 16 47 8 26 -7 31 -7 22 2 -7 7 -12 32 -12 56 0 30 -4
41 -11 36 -9 -5 -10 3 -5 30 5 28 3 38 -9 42 -10 4 -15 20 -15 54 0 31 -5 52
-15 60 -10 8 -12 17 -7 22 12 12 107 -15 128 -37 12 -12 19 -13 29 -5 22 19
108 21 174 6 55 -13 84 -13 256 -5 6 1 30 -2 55 -6 25 -4 57 -7 72 -7 15 -1
26 -4 24 -7 -3 -4 14 -5 37 -4 23 2 36 0 30 -3 -19 -8 -16 -22 7 -29 16 -5 18
-10 10 -25 -6 -10 -10 -25 -9 -32 0 -7 4 -4 9 7 7 15 9 8 8 -27 -1 -26 -5 -45
-10 -42 -4 3 -8 0 -8 -6 0 -6 -6 -18 -14 -26 -11 -11 -16 -11 -19 -1 -3 6 -6
2 -6 -11 -1 -13 -5 -21 -10 -18 -5 3 -11 -1 -15 -9 -3 -8 0 -17 6 -21 7 -4 8
-3 4 4 -4 7 -2 12 3 12 6 0 11 -5 11 -11 0 -6 7 -4 15 5 8 8 15 19 15 24 0 5
7 15 15 22 13 11 14 10 9 -4 -5 -12 -1 -15 14 -13 11 2 27 8 34 15 8 6 18 9
21 5 4 -3 7 -1 7 5 0 7 10 12 22 12 12 0 44 22 74 50 34 32 58 48 68 44 12 -4
16 0 16 17 0 12 3 19 6 16 4 -4 19 2 34 13 15 11 29 17 32 14 3 -2 11 3 19 13
12 15 12 16 -1 9 -9 -4 -8 -2 2 7 10 8 15 17 11 20 -3 4 2 9 11 13 9 3 14 10
11 14 -3 4 2 11 11 14 8 3 12 10 9 16 -8 14 28 13 42 -1 8 -8 22 0 52 30 23
23 46 39 52 35 6 -3 5 3 -3 15 -7 12 -16 21 -20 21 -4 0 -5 6 -3 13 3 7 -17
30 -44 51 -33 26 -47 44 -43 54 4 11 1 14 -11 9 -9 -3 -19 -2 -22 4 -4 5 -10
7 -14 5 -4 -3 -13 3 -21 14 -7 10 -19 16 -27 13 -7 -3 -13 1 -13 10 0 26 -40
48 -64 35 -15 -8 -21 -8 -24 1 -3 8 -15 2 -34 -16 -26 -25 -31 -26 -41 -12
-19 26 -66 33 -88 13 -11 -10 -19 -12 -19 -6 0 15 -35 15 -62 1 -25 -14 -71
-21 -124 -20 -29 0 -46 -5 -55 -17 -13 -16 -12 -16 5 -2 12 9 17 10 12 2 -11
-18 17 -42 36 -31 8 5 31 7 51 6 20 -2 33 1 30 6 -3 6 19 7 56 3 33 -3 88 -9
121 -12 59 -6 60 -7 60 -36 l0 -29 27 21 c14 11 29 17 32 12 3 -5 20 -8 36 -8
26 1 30 -2 26 -24 -1 -14 -12 -42 -23 -63 -15 -30 -24 -38 -39 -34 -13 4 -25
-2 -35 -19 -9 -14 -26 -24 -39 -24 -12 0 -28 -7 -35 -15 -19 -23 -58 -18 -87
11 -14 14 -28 23 -31 20 -3 -4 2 -12 12 -19 16 -12 10 -15 -46 -26 -34 -7 -81
-12 -103 -10 -46 2 -51 2 -120 -6 -101 -12 -292 -1 -330 18 -16 9 -43 18 -58
21 -43 8 -60 25 -45 45 12 15 11 15 -7 0 -32 -26 -131 -11 -162 25 l-24 28
-22 -19 c-40 -36 -97 -34 -97 4 0 11 -6 14 -25 9 -21 -5 -27 -1 -45 33 -11 22
-20 50 -20 61 0 12 -4 19 -9 16 -20 -13 -41 7 -41 37 l0 30 25 -23 25 -23 0
36 c0 46 10 47 44 2 31 -40 46 -38 46 5 0 37 31 47 95 31 24 -6 57 -11 72 -11
16 0 53 -7 83 -15 67 -19 69 -19 100 -32 50 -21 68 -24 75 -13 4 7 17 9 29 6
11 -3 28 -1 36 4 12 8 12 10 1 10 -9 0 -6 7 9 20 13 11 18 20 12 20 -7 0 -12
5 -12 11 0 5 5 7 10 4 6 -3 10 -3 10 0 0 11 -74 38 -110 40 -59 4 -61 5 -54
17 5 7 2 9 -9 5 -8 -3 -18 0 -21 8 -3 8 -13 11 -25 8 -14 -4 -21 -1 -21 10 0
8 -8 17 -19 20 -14 3 -17 0 -14 -14 6 -23 -13 -25 -25 -2 -10 17 -96 26 -117
11 -9 -6 -68 2 -132 17 -13 3 -23 11 -23 18 0 14 61 77 74 77 11 0 86 80 86
92 0 6 7 8 15 4 8 -3 15 -1 15 4 0 6 -17 8 -40 5 -24 -3 -40 -1 -40 6 0 5 5 7
10 4 14 -9 12 8 -2 27 -12 14 -16 13 -38 -15z m-170 -51 c0 -7 -12 -22 -27
-31 l-26 -18 22 32 c25 34 31 38 31 17z m-120 -56 c-8 -5 -17 -7 -19 -4 -3 3
1 9 9 14 8 5 17 7 19 4 3 -3 -1 -9 -9 -14z m-83 -41 c-8 -21 -13 -26 -15 -15
-2 10 2 23 8 31 18 22 20 18 7 -16z m-72 -229 c3 -5 -1 -10 -9 -10 -9 0 -16 5
-16 10 0 6 4 10 9 10 6 0 13 -4 16 -10z m260 0 c-3 -5 -10 -10 -16 -10 -5 0
-9 5 -9 10 0 6 7 10 16 10 8 0 12 -4 9 -10z m185 -540 c0 -13 -12 -19 -26 -13
-8 3 -12 8 -9 12 5 10 35 10 35 1z"/>
<path d="M7440 5000 c0 -11 4 -20 10 -20 5 0 7 -7 3 -16 -3 -8 -12 -13 -19
-10 -8 3 -14 2 -14 -2 0 -11 41 -34 48 -28 3 3 0 6 -6 6 -16 0 -15 17 1 23 15
6 16 -20 3 -42 -7 -11 -10 -11 -17 0 -4 7 -11 10 -16 6 -4 -4 -2 -17 5 -27 17
-29 15 -33 -14 -26 -17 5 -23 3 -19 -4 3 -5 17 -10 31 -10 13 0 24 -4 24 -10
0 -5 7 -7 15 -4 8 4 15 12 15 19 0 7 6 16 13 18 10 4 10 6 0 6 -7 1 -13 8 -13
17 0 8 3 13 8 11 4 -3 16 -1 27 4 15 6 16 8 4 8 -25 1 -44 28 -31 44 7 8 6 18
-4 31 -8 11 -14 17 -14 13 0 -4 -9 -3 -20 3 -17 9 -20 8 -20 -10z m43 -135
c-3 -9 -8 -14 -10 -11 -3 3 -2 9 2 15 9 16 15 13 8 -4z"/>
<path d="M8995 5000 c-3 -5 -1 -10 4 -10 6 0 11 5 11 10 0 6 -2 10 -4 10 -3 0
-8 -4 -11 -10z"/>
<path d="M7380 4992 c0 -5 7 -13 16 -16 10 -4 14 -1 12 6 -5 15 -28 23 -28 10z"/>
<path d="M5811 4942 c-41 -46 -62 -92 -54 -121 4 -17 8 -19 20 -9 11 9 16 9
23 -2 5 -8 7 -17 4 -21 -2 -4 3 -12 11 -19 8 -7 15 -20 15 -30 0 -9 7 -17 15
-17 10 0 15 10 15 26 0 21 -2 23 -10 11 -6 -9 -10 -10 -10 -3 0 6 4 14 8 17
10 6 8 63 -3 89 -4 10 -3 17 4 17 6 0 11 7 11 16 0 14 -2 15 -17 3 -15 -13
-15 -12 -3 11 10 18 10 25 1 28 -9 3 -9 7 0 18 7 8 10 17 7 19 -2 3 -19 -12
-37 -33z"/>
<path d="M8980 4970 c-12 -7 -12 -13 -1 -33 15 -28 11 -73 -7 -69 -15 3 -16
-14 -1 -23 6 -4 7 -14 4 -24 -9 -22 -13 -41 -15 -71 -1 -14 -4 -19 -7 -12 -7
17 -23 15 -23 -3 0 -8 8 -15 17 -15 13 0 14 -3 5 -12 -13 -13 -16 -48 -4 -48
4 0 16 37 27 81 10 45 24 87 31 94 8 8 9 17 2 29 -6 10 -7 40 -4 67 7 50 3 56
-24 39z"/>
<path d="M7530 4961 c0 -8 7 -19 16 -25 14 -11 13 -16 -7 -51 -13 -21 -18 -36
-12 -32 6 4 13 3 15 -2 1 -5 19 -12 38 -15 26 -5 31 -4 20 3 -11 8 -12 11 -2
11 8 0 16 -9 19 -21 4 -14 12 -19 24 -16 11 3 19 0 19 -5 0 -17 30 13 31 31 0
12 2 11 9 -4 5 -11 9 -14 9 -6 1 21 31 -7 31 -29 0 -10 7 -21 16 -24 13 -5 14
-4 6 7 -9 10 -8 17 0 25 9 9 8 12 -4 12 -19 0 -33 31 -18 40 7 4 3 16 -11 34
-12 15 -24 25 -27 22 -3 -3 -12 -1 -19 6 -11 9 -17 9 -24 -3 -6 -10 -9 -10 -9
-1 0 6 -7 12 -16 12 -8 0 -13 4 -10 8 6 10 -25 9 -42 -2 -8 -5 -20 1 -32 16
-12 14 -19 18 -20 9z m70 -50 c-15 -29 -30 -35 -30 -12 0 17 11 28 33 30 4 1
3 -8 -3 -18z m76 -25 c0 -14 -5 -21 -9 -17 -4 4 -5 15 -1 24 9 24 12 21 10 -7z
m-49 -2 c-3 -3 -12 -4 -19 -1 -8 3 -5 6 6 6 11 1 17 -2 13 -5z m103 2 c0 -18
-14 -34 -26 -29 -21 8 -17 33 6 33 11 0 20 -2 20 -4z"/>
<path d="M6785 4930 c-8 -25 23 -73 42 -66 8 4 17 6 19 6 2 0 4 7 4 15 0 8 -9
15 -20 15 -11 0 -20 5 -20 11 0 5 5 7 10 4 6 -3 10 -2 10 2 0 5 -9 14 -19 20
-17 11 -21 9 -26 -7z m25 -4 c0 -3 -4 -8 -10 -11 -5 -3 -10 -1 -10 4 0 6 5 11
10 11 6 0 10 -2 10 -4z"/>
<path d="M6045 4918 c-4 -9 -5 -25 -3 -34 2 -14 5 -15 14 -3 7 8 8 22 4 34 -7
18 -9 18 -15 3z"/>
<path d="M7406 4911 c-4 -7 -5 -15 -2 -18 9 -9 19 4 14 18 -4 11 -6 11 -12 0z"/>
<path d="M6928 4874 c6 -3 12 -12 12 -20 0 -9 5 -12 10 -9 6 3 10 -1 10 -9 0
-9 3 -16 8 -17 4 0 16 -2 27 -5 60 -13 209 6 213 26 2 13 -16 15 -118 15 -66
0 -121 3 -122 6 -2 4 -14 9 -28 13 -14 3 -19 3 -12 0z"/>
<path d="M7306 4853 c-3 -8 -6 -16 -6 -17 0 -2 16 2 35 8 43 13 45 21 6 22
-18 1 -32 -4 -35 -13z"/>
<path d="M7807 4839 c4 -13 8 -18 11 -10 2 7 -1 18 -6 23 -8 8 -9 4 -5 -13z"/>
<path d="M7787 4795 c-4 -8 -1 -14 6 -12 7 1 11 -4 10 -10 -2 -7 4 -13 12 -13
19 0 19 2 -4 29 -15 18 -20 19 -24 6z"/>
<path d="M7846 4793 c-6 -14 -5 -15 5 -6 7 7 10 15 7 18 -3 3 -9 -2 -12 -12z"/>
<path d="M7889 4758 c-6 -13 -6 -59 -1 -53 7 6 11 55 5 55 -2 0 -4 -1 -4 -2z"/>
<path d="M7924 4735 c-4 -8 -1 -21 5 -29 6 -7 8 -16 4 -19 -3 -4 -1 -7 5 -7 7
0 12 15 12 35 0 36 -16 47 -26 20z"/>
<path d="M7655 4710 c3 -5 8 -10 11 -10 2 0 4 5 4 10 0 6 -5 10 -11 10 -5 0
-7 -4 -4 -10z"/>
<path d="M7138 4703 c6 -2 9 -10 6 -15 -4 -7 -2 -8 5 -4 13 9 5 26 -12 25 -9
0 -8 -2 1 -6z"/>
<path d="M5460 4380 c0 -5 5 -10 11 -10 5 0 7 5 4 10 -3 6 -8 10 -11 10 -2 0
-4 -4 -4 -10z"/>
<path d="M6000 4279 c0 -5 5 -7 10 -4 6 3 10 8 10 11 0 2 -4 4 -10 4 -5 0 -10
-5 -10 -11z"/>
<path d="M5642 4230 c0 -14 2 -19 5 -12 2 6 2 18 0 25 -3 6 -5 1 -5 -13z"/>
<path d="M5915 4165 c-35 -78 -40 -119 -9 -77 7 9 16 17 21 17 34 3 75 35 43
35 -5 0 -10 -4 -10 -10 0 -5 -10 -8 -22 -6 -13 3 -25 5 -27 5 -2 1 4 10 13 20
10 11 16 28 13 38 -3 13 -8 8 -22 -22z"/>
<path d="M6290 4189 c0 -5 5 -7 10 -4 6 3 10 8 10 11 0 2 -4 4 -10 4 -5 0 -10
-5 -10 -11z"/>
<path d="M6017 4143 c5 -12 3 -14 -7 -8 -8 5 -11 4 -7 -2 4 -6 -7 -16 -23 -23
-16 -7 -35 -19 -42 -28 -11 -13 -10 -14 12 -7 41 12 90 54 84 70 -4 8 -10 15
-15 15 -4 0 -5 -7 -2 -17z"/>
<path d="M6710 4106 c0 -9 5 -16 10 -16 6 0 10 4 10 9 0 6 -4 13 -10 16 -5 3
-10 -1 -10 -9z"/>
<path d="M5983 4069 c-9 -11 -6 -14 13 -15 13 -1 24 2 24 8 0 5 -4 7 -9 4 -5
-4 -11 -1 -13 5 -3 8 -7 7 -15 -2z"/>
<path d="M6735 4070 c3 -5 1 -10 -6 -10 -13 0 20 -29 34 -30 14 0 7 38 -9 44
-22 8 -26 8 -19 -4z"/>
<path d="M6126 4004 c-5 -14 -4 -15 9 -4 17 14 19 20 6 20 -5 0 -12 -7 -15
-16z"/>
<path d="M7147 3999 c7 -7 15 -10 18 -7 3 3 -2 9 -12 12 -14 6 -15 5 -6 -5z"/>
<path d="M6794 3991 c4 -5 1 -12 -4 -14 -6 -3 -5 -4 2 -3 15 3 23 26 8 26 -6
0 -9 -4 -6 -9z"/>
<path d="M6820 3991 c0 -6 5 -11 10 -11 6 0 8 -12 4 -27 -4 -21 -3 -24 4 -14
12 17 42 24 42 10 0 -6 5 -7 10 -4 16 10 -8 47 -28 43 -9 -1 -23 1 -29 5 -8 5
-13 4 -13 -2z"/>
<path d="M5915 3970 c3 -5 8 -10 11 -10 2 0 4 5 4 10 0 6 -5 10 -11 10 -5 0
-7 -4 -4 -10z"/>
<path d="M7160 3965 c0 -8 4 -15 10 -15 5 0 7 7 4 15 -4 8 -8 15 -10 15 -2 0
-4 -7 -4 -15z"/>
<path d="M7063 3952 c-12 -12 -12 -17 4 -34 17 -19 17 -19 26 4 6 18 10 20 17
9 4 -8 19 -15 32 -15 21 -1 23 1 14 20 -13 28 -71 37 -93 16z"/>
<path d="M6939 3933 c-1 -28 -3 -40 -15 -80 -4 -14 -2 -23 4 -23 6 0 14 21 17
48 4 26 9 55 12 65 2 9 0 17 -6 17 -6 0 -11 -12 -12 -27z"/>
<path d="M6970 3945 c0 -8 2 -15 4 -15 2 0 6 7 10 15 3 8 1 15 -4 15 -6 0 -10
-7 -10 -15z"/>
<path d="M6897 3920 c-3 -11 -1 -20 4 -20 5 0 9 9 9 20 0 11 -2 20 -4 20 -2 0
-6 -9 -9 -20z"/>
<path d="M7016 3923 c-6 -14 -5 -15 5 -6 7 7 10 15 7 18 -3 3 -9 -2 -12 -12z"/>
<path d="M6990 3873 c0 -18 2 -33 4 -33 9 0 13 39 5 51 -6 10 -9 4 -9 -18z"/>
<path d="M6765 3870 c-3 -5 -1 -10 4 -10 6 0 11 5 11 10 0 6 -2 10 -4 10 -3 0
-8 -4 -11 -10z"/>
<path d="M6865 3740 c-3 -5 -1 -10 4 -10 6 0 11 5 11 10 0 6 -2 10 -4 10 -3 0
-8 -4 -11 -10z"/>
<path d="M6889 3723 c-13 -16 -12 -17 4 -4 9 7 17 15 17 17 0 8 -8 3 -21 -13z"/>
<path d="M7058 3694 c6 -11 19 -27 28 -35 16 -13 16 -12 6 7 -6 11 -19 27 -28
35 -16 13 -16 12 -6 -7z"/>
<path d="M6846 3685 c-9 -26 -7 -32 5 -12 6 10 9 21 6 23 -2 3 -7 -2 -11 -11z"/>
<path d="M7115 3656 c10 -14 19 -26 22 -26 7 0 -17 39 -28 46 -6 3 -3 -5 6
-20z"/>
<path d="M6760 3645 c0 -8 2 -15 4 -15 2 0 6 7 10 15 3 8 1 15 -4 15 -6 0 -10
-7 -10 -15z"/>
<path d="M6970 3649 c0 -5 5 -7 10 -4 6 3 10 8 10 11 0 2 -4 4 -10 4 -5 0 -10
-5 -10 -11z"/>
<path d="M6727 3643 c-12 -12 -7 -22 8 -17 8 4 15 10 15 15 0 11 -14 12 -23 2z"/>
<path d="M6735 3596 c-9 -14 -13 -31 -9 -37 12 -20 13 -70 1 -62 -6 3 -2 -6 9
-20 10 -15 23 -27 27 -27 5 0 5 -9 2 -20 -4 -14 -2 -20 6 -18 8 2 15 -12 19
-35 4 -21 12 -43 18 -49 23 -23 25 3 4 58 -15 42 -18 63 -11 82 5 13 7 27 4
30 -3 3 -5 0 -5 -6 0 -29 -27 -8 -43 34 -13 34 -14 51 -6 66 16 30 3 33 -16 4z"/>
<path d="M7920 3610 c0 -5 5 -10 11 -10 5 0 7 5 4 10 -3 6 -8 10 -11 10 -2 0
-4 -4 -4 -10z"/>
<path d="M8111 3604 c0 -11 3 -14 6 -6 3 7 2 16 -1 19 -3 4 -6 -2 -5 -13z"/>
<path d="M6851 3579 c-8 -17 -22 -34 -33 -37 -26 -6 -17 -26 13 -30 19 -2 21
-1 9 7 -12 8 -11 14 9 35 12 13 21 32 19 41 -2 11 -7 6 -17 -16z"/>
<path d="M6531 3558 c-1 -16 4 -28 9 -28 12 0 12 8 0 35 -8 18 -9 17 -9 -7z"/>
<path d="M6483 3535 c-11 -8 -23 -11 -27 -8 -3 3 -6 2 -6 -4 0 -17 12 -22 35
-13 14 5 26 5 34 -3 8 -8 11 -7 11 5 0 27 -24 39 -47 23z"/>
<path d="M6860 3513 c0 -6 4 -13 9 -15 5 -1 20 -21 35 -42 14 -21 26 -32 26
-23 0 9 -4 18 -10 22 -5 3 -6 13 -3 22 4 11 3 14 -6 9 -7 -4 -20 2 -31 16 -11
13 -19 18 -20 11z"/>
<path d="M6420 3484 c-6 -14 -10 -30 -10 -35 0 -16 19 -10 30 11 8 15 8 20 -1
20 -6 0 -9 7 -5 15 3 8 3 15 0 15 -2 0 -9 -12 -14 -26z"/>
<path d="M7141 3464 c0 -11 3 -14 6 -6 3 7 2 16 -1 19 -3 4 -6 -2 -5 -13z"/>
<path d="M6697 3449 c3 -10 9 -16 14 -13 13 8 11 21 -5 27 -10 4 -12 0 -9 -14z"/>
<path d="M7422 3449 c-5 -13 -7 -31 -4 -39 4 -9 9 -2 13 20 9 41 3 53 -9 19z"/>
<path d="M7230 3440 c0 -5 5 -10 10 -10 6 0 10 5 10 10 0 6 -4 10 -10 10 -5 0
-10 -4 -10 -10z"/>
<path d="M7377 3439 c7 -7 15 -10 18 -7 3 3 -2 9 -12 12 -14 6 -15 5 -6 -5z"/>
<path d="M6845 3410 c3 -5 8 -10 11 -10 2 0 4 5 4 10 0 6 -5 10 -11 10 -5 0
-7 -4 -4 -10z"/>
<path d="M6850 3380 c0 -8 5 -22 10 -30 9 -13 10 -13 10 0 0 8 -5 22 -10 30
-9 13 -10 13 -10 0z"/>
<path d="M6955 3380 c3 -5 8 -10 11 -10 2 0 4 5 4 10 0 6 -5 10 -11 10 -5 0
-7 -4 -4 -10z"/>
<path d="M7421 3374 c0 -11 3 -14 6 -6 3 7 2 16 -1 19 -3 4 -6 -2 -5 -13z"/>
<path d="M7303 3335 c14 -24 30 -60 37 -80 6 -19 16 -35 21 -35 5 0 3 15 -5
33 -42 97 -58 127 -67 127 -6 0 1 -20 14 -45z"/>
<path d="M7627 3360 c3 -10 12 -25 21 -32 13 -11 12 -8 -2 20 -19 36 -27 41
-19 12z"/>
<path d="M7141 3354 c0 -11 3 -14 6 -6 3 7 2 16 -1 19 -3 4 -6 -2 -5 -13z"/>
<path d="M7450 3290 c6 -11 13 -20 16 -20 2 0 0 9 -6 20 -6 11 -13 20 -16 20
-2 0 0 -9 6 -20z"/>
<path d="M4568 6993 c7 -3 16 -2 19 1 4 3 -2 6 -13 5 -11 0 -14 -3 -6 -6z"/>
<path d="M4333 6895 c-16 -18 -17 -33 -1 -17 7 7 20 12 30 12 10 0 18 5 18 10
0 15 -33 11 -47 -5z"/>
<path d="M4050 6840 c0 -5 5 -10 10 -10 6 0 10 5 10 10 0 6 -4 10 -10 10 -5 0
-10 -4 -10 -10z"/>
<path d="M4073 6815 c-17 -19 -18 -44 -1 -27 7 7 21 12 31 12 16 0 17 3 7 15
-15 18 -21 18 -37 0z"/>
<path d="M4012 6808 c-18 -18 -15 -38 6 -37 10 0 12 3 5 6 -7 2 -13 9 -13 14
0 4 7 6 15 3 9 -4 15 0 15 10 0 19 -11 21 -28 4z"/>
<path d="M4080 6779 c0 -5 5 -7 10 -4 6 3 10 8 10 11 0 2 -4 4 -10 4 -5 0 -10
-5 -10 -11z"/>
<path d="M4275 6770 c3 -5 10 -10 16 -10 5 0 9 5 9 10 0 6 -7 10 -16 10 -8 0
-12 -4 -9 -10z"/>
<path d="M4790 6766 c0 -8 5 -18 10 -21 6 -3 10 1 10 9 0 8 -4 18 -10 21 -5 3
-10 -1 -10 -9z"/>
<path d="M4005 6750 c-4 -6 7 -10 25 -10 18 0 29 4 25 10 -3 6 -15 10 -25 10
-10 0 -22 -4 -25 -10z"/>
<path d="M4117 6754 c-10 -11 3 -24 24 -24 23 0 25 15 3 24 -19 7 -19 7 -27 0z"/>
<path d="M4760 6739 c0 -11 5 -17 10 -14 6 3 10 13 10 21 0 8 -4 14 -10 14 -5
0 -10 -9 -10 -21z"/>
<path d="M4115 6700 c3 -5 13 -10 21 -10 8 0 12 5 9 10 -3 6 -13 10 -21 10 -8
0 -12 -4 -9 -10z"/>
<path d="M4208 6663 c7 -3 16 -2 19 1 4 3 -2 6 -13 5 -11 0 -14 -3 -6 -6z"/>
<path d="M4060 6600 c0 -5 4 -10 9 -10 6 0 13 5 16 10 3 6 -1 10 -9 10 -9 0
-16 -4 -16 -10z"/>
<path d="M3920 6580 c0 -5 7 -10 15 -10 8 0 15 5 15 10 0 6 -7 10 -15 10 -8 0
-15 -4 -15 -10z"/>
<path d="M8130 3210 c0 -5 5 -10 11 -10 5 0 7 5 4 10 -3 6 -8 10 -11 10 -2 0
-4 -4 -4 -10z"/>
<path d="M8005 3040 c-3 -6 1 -7 9 -4 18 7 21 14 7 14 -6 0 -13 -4 -16 -10z"/>
<path d="M7856 2891 c-4 -7 -5 -15 -2 -18 9 -9 19 4 14 18 -4 11 -6 11 -12 0z"/>
<path d="M7356 2653 c-6 -14 -5 -15 5 -6 7 7 10 15 7 18 -3 3 -9 -2 -12 -12z"/>
<path d="M7195 2650 c3 -5 11 -10 16 -10 6 0 7 5 4 10 -3 6 -11 10 -16 10 -6
0 -7 -4 -4 -10z"/>
<path d="M8165 2490 c-3 -5 -1 -10 4 -10 6 0 11 5 11 10 0 6 -2 10 -4 10 -3 0
-8 -4 -11 -10z"/>
<path d="M7098 2376 c-20 -15 -23 -26 -8 -26 5 0 14 9 20 20 12 23 11 24 -12
6z"/>
<path d="M7030 2260 c-13 -8 -12 -10 3 -10 9 0 17 5 17 10 0 12 -1 12 -20 0z"/>
<path d="M6335 2080 c3 -5 8 -10 11 -10 2 0 4 5 4 10 0 6 -5 10 -11 10 -5 0
-7 -4 -4 -10z"/>
<path d="M6383 2040 c-2 -24 12 -27 21 -4 8 22 8 24 -7 24 -7 0 -13 -9 -14
-20z"/>
<path d="M6370 1990 c0 -5 5 -10 10 -10 6 0 10 5 10 10 0 6 -4 10 -10 10 -5 0
-10 -4 -10 -10z"/>
<path d="M6850 1969 c0 -5 5 -7 10 -4 6 3 10 8 10 11 0 2 -4 4 -10 4 -5 0 -10
-5 -10 -11z"/>
<path d="M6950 1970 c0 -5 7 -7 15 -4 8 4 15 8 15 10 0 2 -7 4 -15 4 -8 0 -15
-4 -15 -10z"/>
<path d="M6898 1953 c-31 -8 -19 -22 17 -20 37 2 45 11 19 21 -9 3 -16 5 -17
5 -1 -1 -10 -3 -19 -6z"/>
<path d="M6835 1939 c-4 -6 1 -17 11 -24 14 -11 15 -14 5 -15 -11 0 -12 -3 -4
-11 15 -15 33 -3 33 21 0 23 -35 46 -45 29z"/>
<path d="M6890 1879 c-16 -29 -9 -30 20 -3 20 19 21 24 8 24 -10 0 -22 -9 -28
-21z"/>
<path d="M6690 1876 c0 -2 7 -7 16 -10 8 -3 12 -2 9 4 -6 10 -25 14 -25 6z"/>
<path d="M7140 1855 c0 -9 5 -15 11 -13 6 2 11 8 11 13 0 5 -5 11 -11 13 -6 2
-11 -4 -11 -13z"/>
<path d="M6846 1802 c-2 -4 4 -8 15 -8 10 0 19 4 19 8 0 4 -6 8 -14 8 -8 0
-17 -4 -20 -8z"/>
</g>
</svg>
